<svg width="48" height="48" viewBox="0 0 48 48" fill="none" xmlns="http://www.w3.org/2000/svg">
<rect width="48" height="48" rx="6" fill="white"/>
<rect x="0.5" y="0.5" width="47" height="47" rx="5.5" stroke="#0059B3" stroke-opacity="0.16"/>
<path d="M39 9V39H9V9H39ZM24.7413 38.0725L24.7275 38.075L24.6388 38.1187L24.6138 38.1237L24.5963 38.1187L24.5075 38.075C24.495 38.07 24.4838 38.0737 24.4775 38.0812L24.4725 38.0938L24.4513 38.6287L24.4575 38.6537L24.47 38.67L24.6 38.7625L24.6187 38.7675L24.6337 38.7625L24.7638 38.67L24.7788 38.65L24.7837 38.6287L24.7625 38.095C24.76 38.0825 24.7513 38.0737 24.7413 38.0725ZM25.0725 37.9313L25.0562 37.9338L24.825 38.05L24.8125 38.0625L24.8088 38.0763L24.8313 38.6138L24.8375 38.6287L24.8475 38.6375L25.0987 38.7537C25.1138 38.7587 25.1275 38.7537 25.135 38.7437L25.14 38.7262L25.0975 37.9587C25.0938 37.9438 25.085 37.9338 25.0725 37.9313ZM24.1787 37.9338C24.1731 37.9312 24.1667 37.9305 24.1606 37.9319C24.1545 37.9332 24.1491 37.9365 24.145 37.9412L24.1375 37.9587L24.095 38.7262C24.095 38.7413 24.1038 38.7513 24.1163 38.7563L24.135 38.7537L24.3862 38.6375L24.3988 38.6275L24.4037 38.6138L24.425 38.0763L24.4212 38.0613L24.4087 38.0487L24.1787 37.9338Z" fill="white"/>
<path d="M24 11.5C30.9037 11.5 36.5 17.0963 36.5 24C36.5 30.9037 30.9037 36.5 24 36.5C17.0963 36.5 11.5 30.9037 11.5 24C11.5 17.0963 17.0963 11.5 24 11.5ZM23.9875 21.5H22.75C22.4314 21.5004 22.125 21.6223 21.8933 21.8411C21.6616 22.0598 21.5222 22.3587 21.5035 22.6767C21.4849 22.9948 21.5883 23.308 21.7928 23.5523C21.9973 23.7966 22.2874 23.9536 22.6038 23.9913L22.75 24V30.2375C22.75 30.8875 23.2425 31.425 23.875 31.4925L24.0125 31.5H24.625C24.8879 31.5 25.1441 31.4171 25.3572 31.2631C25.5702 31.1092 25.7294 30.8919 25.8119 30.6423C25.8944 30.3927 25.8961 30.1234 25.8168 29.8728C25.7374 29.6222 25.5811 29.4029 25.37 29.2463L25.25 29.1675V22.7625C25.25 22.1125 24.7575 21.575 24.125 21.5075L23.9875 21.5ZM24 17.75C23.6685 17.75 23.3505 17.8817 23.1161 18.1161C22.8817 18.3505 22.75 18.6685 22.75 19C22.75 19.3315 22.8817 19.6495 23.1161 19.8839C23.3505 20.1183 23.6685 20.25 24 20.25C24.3315 20.25 24.6495 20.1183 24.8839 19.8839C25.1183 19.6495 25.25 19.3315 25.25 19C25.25 18.6685 25.1183 18.3505 24.8839 18.1161C24.6495 17.8817 24.3315 17.75 24 17.75Z" fill="#1279E1"/>
</svg>
