<svg width="48" height="48" viewBox="0 0 48 48" fill="none" xmlns="http://www.w3.org/2000/svg">
<rect width="48" height="48" rx="6" fill="white"/>
<rect x="0.5" y="0.5" width="47" height="47" rx="5.5" stroke="#0059B3" stroke-opacity="0.16"/>
<g clip-path="url(#clip0_3519_4635)">
<path fill-rule="evenodd" clip-rule="evenodd" d="M15.1716 12.6716C14 13.8431 14 15.7288 14 19.5V28.5C14 32.2712 14 34.1569 15.1716 35.3284C16.3431 36.5 18.2288 36.5 22 36.5H26C29.7712 36.5 31.6569 36.5 32.8284 35.3284C34 34.1569 34 32.2712 34 28.5V19.5C34 15.7288 34 13.8431 32.8284 12.6716C31.6569 11.5 29.7712 11.5 26 11.5H22C18.2288 11.5 16.3431 11.5 15.1716 12.6716ZM19 23C18.4477 23 18 23.4477 18 24C18 24.5523 18.4477 25 19 25H24C24.5523 25 25 24.5523 25 24C25 23.4477 24.5523 23 24 23H19ZM19 26.75C18.4477 26.75 18 27.1977 18 27.75C18 28.3023 18.4477 28.75 19 28.75H26.5C27.0523 28.75 27.5 28.3023 27.5 27.75C27.5 27.1977 27.0523 26.75 26.5 26.75H19ZM19 30.5C18.4477 30.5 18 30.9477 18 31.5C18 32.0523 18.4477 32.5 19 32.5H24C24.5523 32.5 25 32.0523 25 31.5C25 30.9477 24.5523 30.5 24 30.5H19Z" fill="#1279E1"/>
<path fill-rule="evenodd" clip-rule="evenodd" d="M32.742 9.98885C31.1023 8.89246 28.9319 9.02759 27.4408 10.3189L26.889 10.7967C26.4716 11.1583 26.4262 11.7898 26.7878 12.2073C27.1493 12.6248 27.7809 12.6702 28.1984 12.3086L28.7501 11.8308C29.5602 11.1292 30.7395 11.0557 31.6304 11.6514L31.864 11.8076C32.3692 12.1454 32.6797 12.6936 32.7225 13.283C32.6498 13.283 32.5757 13.283 32.5 13.283H29.25C27.3644 13.283 26.4216 13.283 25.8358 13.8688C25.25 14.4546 25.25 15.3974 25.25 17.283V18.658C25.25 20.5436 25.25 21.4864 25.8358 22.0722C26.4216 22.658 27.3644 22.658 29.25 22.658H32.5C34.3856 22.658 35.3284 22.658 35.9142 22.0722C36.5 21.4864 36.5 20.5436 36.5 18.658V17.283C36.5 15.3974 36.5 14.4546 35.9142 13.8688C35.6272 13.5818 35.2545 13.4354 34.7272 13.3607C34.7069 12.0815 34.0638 10.8726 32.9756 10.145L32.742 9.98885ZM31.25 17.658C31.25 17.8651 31.0821 18.033 30.875 18.033C30.6679 18.033 30.5 17.8651 30.5 17.658C30.5 17.4509 30.6679 17.283 30.875 17.283C31.0821 17.283 31.25 17.4509 31.25 17.658ZM31.125 19.5165C32.0423 19.3942 32.75 18.6088 32.75 17.658C32.75 16.6225 31.9105 15.783 30.875 15.783C29.8395 15.783 29 16.6225 29 17.658C29 18.6088 29.7077 19.3942 30.625 19.5165V20.783H31.125V19.5165Z" fill="#1279E1"/>
<path d="M27.4408 10.3189L27.7681 10.6969L27.4408 10.3189ZM32.742 9.98885L32.4641 10.4045L32.4641 10.4045L32.742 9.98885ZM26.889 10.7967L27.2164 11.1747L27.2164 11.1747L26.889 10.7967ZM26.7878 12.2073L27.1657 11.88L27.1657 11.88L26.7878 12.2073ZM28.1984 12.3086L28.5257 12.6866L28.5257 12.6866L28.1984 12.3086ZM28.7501 11.8308L28.4228 11.4528L28.4228 11.4528L28.7501 11.8308ZM31.6304 11.6514L31.9083 11.2358L31.9083 11.2358L31.6304 11.6514ZM31.864 11.8076L31.5861 12.2233L31.5861 12.2233L31.864 11.8076ZM32.7225 13.283L32.7223 13.783L33.2602 13.7833L33.2212 13.2468L32.7225 13.283ZM25.8358 13.8688L25.4822 13.5152L25.4822 13.5152L25.8358 13.8688ZM35.9142 22.0722L35.5607 21.7186L35.5607 21.7186L35.9142 22.0722ZM35.9142 13.8688L35.5607 14.2223L35.5607 14.2223L35.9142 13.8688ZM34.7272 13.3607L34.2273 13.3686L34.234 13.7959L34.6571 13.8558L34.7272 13.3607ZM32.9756 10.145L33.2535 9.72938L33.2535 9.72938L32.9756 10.145ZM31.125 19.5165L31.059 19.0208L30.625 19.0787V19.5165H31.125ZM30.625 19.5165H31.125V19.0787L30.691 19.0208L30.625 19.5165ZM30.625 20.783H30.125V21.283H30.625V20.783ZM31.125 20.783V21.283H31.625V20.783H31.125ZM27.7681 10.6969C29.089 9.55298 31.0116 9.43328 32.4641 10.4045L33.02 9.5732C31.193 8.35163 28.7748 8.50219 27.1135 9.94096L27.7681 10.6969ZM27.2164 11.1747L27.7681 10.6969L27.1135 9.94096L26.5617 10.4188L27.2164 11.1747ZM27.1657 11.88C26.985 11.6713 27.0076 11.3555 27.2164 11.1747L26.5617 10.4188C25.9355 10.9611 25.8675 11.9084 26.4098 12.5346L27.1657 11.88ZM27.871 11.9306C27.6623 12.1114 27.3465 12.0887 27.1657 11.88L26.4098 12.5346C26.9521 13.1609 27.8994 13.2289 28.5257 12.6866L27.871 11.9306ZM28.4228 11.4528L27.871 11.9306L28.5257 12.6866L29.0774 12.2087L28.4228 11.4528ZM31.9083 11.2358C30.8302 10.5149 29.4032 10.6038 28.4228 11.4528L29.0774 12.2087C29.7173 11.6546 30.6488 11.5966 31.3525 12.0671L31.9083 11.2358ZM32.1419 11.392L31.9083 11.2358L31.3525 12.0671L31.5861 12.2233L32.1419 11.392ZM33.2212 13.2468C33.1674 12.5059 32.7771 11.8167 32.1419 11.392L31.5861 12.2233C31.9612 12.4741 32.192 12.8813 32.2238 13.3192L33.2212 13.2468ZM32.7228 12.783C32.65 12.783 32.5757 12.783 32.5 12.783V13.783C32.5757 13.783 32.6497 13.783 32.7223 13.783L32.7228 12.783ZM32.5 12.783H29.25V13.783H32.5V12.783ZM29.25 12.783C28.3213 12.783 27.5745 12.7819 26.9888 12.8607C26.3888 12.9413 25.8835 13.1139 25.4822 13.5152L26.1893 14.2223C26.3738 14.0378 26.6329 13.9175 27.1221 13.8517C27.6256 13.784 28.2931 13.783 29.25 13.783V12.783ZM25.4822 13.5152C25.081 13.9165 24.9084 14.4217 24.8277 15.0218C24.7489 15.6075 24.75 16.3543 24.75 17.283H25.75C25.75 16.326 25.7511 15.6586 25.8188 15.1551C25.8845 14.6659 26.0048 14.4068 26.1893 14.2223L25.4822 13.5152ZM24.75 17.283V18.658H25.75V17.283H24.75ZM24.75 18.658C24.75 19.5867 24.7489 20.3335 24.8277 20.9192C24.9084 21.5192 25.081 22.0245 25.4822 22.4258L26.1893 21.7186C26.0048 21.5341 25.8845 21.2751 25.8188 20.7859C25.7511 20.2823 25.75 19.6149 25.75 18.658H24.75ZM25.4822 22.4258C25.8835 22.827 26.3888 22.9996 26.9888 23.0803C27.5745 23.159 28.3213 23.158 29.25 23.158V22.158C28.2931 22.158 27.6256 22.1569 27.1221 22.0892C26.6329 22.0235 26.3738 21.9032 26.1893 21.7186L25.4822 22.4258ZM29.25 23.158H32.5V22.158H29.25V23.158ZM32.5 23.158C33.4287 23.158 34.1755 23.159 34.7612 23.0803C35.3612 22.9996 35.8665 22.827 36.2678 22.4258L35.5607 21.7186C35.3762 21.9032 35.1171 22.0235 34.6279 22.0892C34.1244 22.1569 33.4569 22.158 32.5 22.158V23.158ZM36.2678 22.4258C36.669 22.0245 36.8416 21.5192 36.9223 20.9192C37.0011 20.3335 37 19.5867 37 18.658H36C36 19.6149 35.9989 20.2823 35.9312 20.7859C35.8655 21.2751 35.7452 21.5341 35.5607 21.7186L36.2678 22.4258ZM37 18.658V17.283H36V18.658H37ZM37 17.283C37 16.3543 37.0011 15.6075 36.9223 15.0218C36.8416 14.4217 36.669 13.9165 36.2678 13.5152L35.5607 14.2223C35.7452 14.4068 35.8655 14.6659 35.9312 15.1551C35.9989 15.6586 36 16.326 36 17.283H37ZM36.2678 13.5152C35.8747 13.1221 35.3817 12.9484 34.7973 12.8657L34.6571 13.8558C35.1273 13.9224 35.3797 14.0414 35.5607 14.2223L36.2678 13.5152ZM32.6977 10.5607C33.6478 11.196 34.2095 12.2516 34.2273 13.3686L35.2271 13.3528C35.2043 11.9114 34.4798 10.5493 33.2535 9.72938L32.6977 10.5607ZM32.4641 10.4045L32.6977 10.5607L33.2535 9.72938L33.02 9.5732L32.4641 10.4045ZM30.875 18.533C31.3582 18.533 31.75 18.1412 31.75 17.658H30.75C30.75 17.5889 30.806 17.533 30.875 17.533V18.533ZM30 17.658C30 18.1412 30.3918 18.533 30.875 18.533V17.533C30.944 17.533 31 17.5889 31 17.658H30ZM30.875 16.783C30.3918 16.783 30 17.1747 30 17.658H31C31 17.727 30.944 17.783 30.875 17.783V16.783ZM31.75 17.658C31.75 17.1747 31.3582 16.783 30.875 16.783V17.783C30.806 17.783 30.75 17.727 30.75 17.658H31.75ZM32.25 17.658C32.25 18.3548 31.7312 18.9313 31.059 19.0208L31.191 20.0121C32.3535 19.8572 33.25 18.8627 33.25 17.658H32.25ZM30.875 16.283C31.6344 16.283 32.25 16.8986 32.25 17.658H33.25C33.25 16.3463 32.1867 15.283 30.875 15.283V16.283ZM29.5 17.658C29.5 16.8986 30.1156 16.283 30.875 16.283V15.283C29.5633 15.283 28.5 16.3463 28.5 17.658H29.5ZM30.691 19.0208C30.0188 18.9313 29.5 18.3548 29.5 17.658H28.5C28.5 18.8627 29.3965 19.8572 30.559 20.0121L30.691 19.0208ZM31.125 20.783V19.5165H30.125V20.783H31.125ZM31.125 20.283H30.625V21.283H31.125V20.283ZM30.625 19.5165V20.783H31.625V19.5165H30.625Z" fill="white"/>
</g>
<defs>
<clipPath id="clip0_3519_4635">
<rect width="30" height="30" fill="white" transform="translate(9 9)"/>
</clipPath>
</defs>
</svg>
