<svg width="48" height="48" viewBox="0 0 48 48" fill="none" xmlns="http://www.w3.org/2000/svg">
<rect width="48" height="48" rx="6" fill="white"/>
<rect x="0.5" y="0.5" width="47" height="47" rx="5.5" stroke="#0059B3" stroke-opacity="0.16"/>
<path d="M37.7384 20.55L37.3784 20.19C37.6112 19.7061 37.6911 19.1626 37.6073 18.6322C37.5234 18.1017 37.2799 17.6094 36.9092 17.2208C36.6562 16.9691 36.3525 16.7742 36.0182 16.6492C35.684 16.5242 35.3269 16.4719 34.9709 16.4958C34.6362 16.5154 34.3076 16.5935 34 16.7267V10.6667H10.6667V37.3333H34V23.85L36.575 21.275L36.795 21.4942C36.8238 21.5229 36.8466 21.557 36.8621 21.5945C36.8777 21.632 36.8857 21.6723 36.8857 21.7129C36.8857 21.7535 36.8777 21.7938 36.8621 21.8313C36.8466 21.8688 36.8238 21.9029 36.795 21.9317L34.8342 23.8933C34.7091 24.0183 34.6388 24.1879 34.6387 24.3647C34.6386 24.5415 34.7088 24.7111 34.8338 24.8362C34.9588 24.9613 35.1283 25.0317 35.3051 25.0317C35.482 25.0318 35.6516 24.9616 35.7767 24.8367L37.7384 22.875C38.0462 22.5664 38.2191 22.1484 38.2191 21.7125C38.2191 21.2766 38.0462 20.8585 37.7384 20.55ZM15.6667 15.8333H29.0017V17.1667H15.6667V15.8333ZM15.6667 19.1667H29.0017V20.5H15.6667V19.1667ZM15.6667 22.5H24.4167V23.8333H15.6667V22.5ZM27.9934 33.9133H21.49C20.7384 33.9133 20.035 33.8425 19.6617 33.2267C19.2792 32.5975 19.6592 31.8667 19.9367 31.3317C19.9859 31.2375 19.8767 31.1208 19.7517 31.25C19.385 31.6267 18.8017 32.305 18.3325 32.85C17.8367 33.4267 17.64 33.6525 17.535 33.7475C17.4239 33.8765 17.2731 33.9649 17.1062 33.9987C16.9393 34.0325 16.7659 34.0098 16.6134 33.9342C16.4764 33.8551 16.3691 33.7333 16.3079 33.5875C16.2466 33.4417 16.2348 33.2798 16.2742 33.1267C16.3092 32.9183 16.9042 30.6 17.4434 28.5158C16.7267 29.7883 14.4517 33.5992 14.345 33.7783C14.2657 33.9113 14.1368 34.0072 13.9867 34.0451C13.8366 34.083 13.6775 34.0598 13.5446 33.9804C13.4117 33.9011 13.3157 33.7722 13.2778 33.6221C13.2399 33.4719 13.2632 33.3129 13.3425 33.18C13.3717 33.1325 16.2217 28.3567 16.5809 27.6633C16.6979 27.3862 16.9159 27.1638 17.1906 27.0411C17.4653 26.9185 17.7763 26.9047 18.0609 27.0025C18.3177 27.1069 18.5254 27.3047 18.6421 27.5562C18.7589 27.8076 18.776 28.0939 18.69 28.3575C18.39 29.5142 18.0842 30.7008 17.8484 31.6242C18.2292 31.1842 18.6275 30.7325 18.915 30.4367C19.1363 30.1707 19.4386 29.9845 19.7758 29.9067C20.1129 29.8289 20.4662 29.8637 20.7817 30.0058C20.9777 30.1056 21.1347 30.2681 21.2277 30.4674C21.3208 30.6668 21.3444 30.8915 21.295 31.1058C21.2154 31.3713 21.107 31.6273 20.9717 31.8692C20.7492 32.3317 20.855 32.7458 21.49 32.7458H27.9925C28.1472 32.7458 28.2956 32.8073 28.405 32.9167C28.5144 33.0261 28.5759 33.1744 28.5759 33.3292C28.5759 33.4839 28.5144 33.6322 28.405 33.7416C28.2956 33.851 28.1472 33.9125 27.9925 33.9125L27.9934 33.9133ZM26.2592 29.705L24.0892 30.2775C24.0576 30.2864 24.0242 30.2867 23.9925 30.2782C23.9608 30.2697 23.932 30.2527 23.9092 30.2292C23.8852 30.2066 23.868 30.1778 23.8593 30.1461C23.8506 30.1143 23.8509 30.0808 23.86 30.0492L24.4134 27.8833L29.905 22.3917L31.7384 24.225L26.2592 29.705ZM35.8142 20.1492L32.6809 23.2825L30.8475 21.4492L33.9809 18.3158C34.2611 18.0277 34.6381 17.8537 35.0392 17.8275L35.1142 17.825C35.2715 17.8222 35.4279 17.8507 35.5741 17.9089C35.7203 17.9672 35.8535 18.0539 35.9659 18.1642C36.2067 18.4485 36.3259 18.8162 36.2975 19.1878C36.2691 19.5593 36.0954 19.9047 35.8142 20.1492Z" fill="#1279E1"/>
</svg>
