<svg width="48" height="48" viewBox="0 0 48 48" fill="none" xmlns="http://www.w3.org/2000/svg">
<rect width="48" height="48" rx="6" fill="white"/>
<rect x="0.5" y="0.5" width="47" height="47" rx="5.5" stroke="#0059B3" stroke-opacity="0.16"/>
<path d="M25.875 20.25H33.4811C33.5042 20.2499 33.5267 20.243 33.5459 20.2301C33.5651 20.2172 33.58 20.1989 33.5889 20.1776C33.5977 20.1562 33.6 20.1328 33.5955 20.1101C33.591 20.0874 33.58 20.0666 33.5637 20.0502L25.1373 11.6238C25.1209 11.6075 25.1001 11.5965 25.0774 11.592C25.0547 11.5875 25.0313 11.5898 25.0099 11.5986C24.9886 11.6075 24.9703 11.6224 24.9574 11.6416C24.9445 11.6608 24.9376 11.6833 24.9375 11.7064V19.3125C24.9375 19.5611 25.0363 19.7996 25.2121 19.9754C25.3879 20.1512 25.6264 20.25 25.875 20.25ZM24 24.9375C23.4832 24.9375 23.0625 25.3055 23.0625 25.7578V26.8125H24.9375V25.7578C24.9375 25.3055 24.5168 24.9375 24 24.9375Z" fill="#1279E1"/>
<path d="M34.0781 22.125H25.875C25.1291 22.125 24.4137 21.8287 23.8863 21.3012C23.3588 20.7738 23.0625 20.0584 23.0625 19.3125V11.1094C23.0625 11.0472 23.0378 10.9876 22.9939 10.9436C22.9499 10.8997 22.8903 10.875 22.8281 10.875H17.4375C16.4429 10.875 15.4891 11.2701 14.7858 11.9733C14.0826 12.6766 13.6875 13.6304 13.6875 14.625V33.375C13.6875 34.3696 14.0826 35.3234 14.7858 36.0266C15.4891 36.7299 16.4429 37.125 17.4375 37.125H30.5625C31.5571 37.125 32.5109 36.7299 33.2141 36.0266C33.9174 35.3234 34.3125 34.3696 34.3125 33.375V22.3594C34.3125 22.2972 34.2878 22.2376 34.2439 22.1936C34.1999 22.1497 34.1403 22.125 34.0781 22.125ZM28.6875 31.5C28.6875 31.9973 28.49 32.4742 28.1383 32.8258C27.7867 33.1775 27.3098 33.375 26.8125 33.375H21.1875C20.6902 33.375 20.2133 33.1775 19.8617 32.8258C19.51 32.4742 19.3125 31.9973 19.3125 31.5V28.6875C19.3125 28.1902 19.51 27.7133 19.8617 27.3617C20.2133 27.01 20.6902 26.8125 21.1875 26.8125V25.7578C21.1875 24.2719 22.449 23.0625 24 23.0625C25.551 23.0625 26.8125 24.2719 26.8125 25.7578V26.8125C27.3098 26.8125 27.7867 27.01 28.1383 27.3617C28.49 27.7133 28.6875 28.1902 28.6875 28.6875V31.5Z" fill="#1279E1"/>
</svg>
