<svg width="48" height="48" viewBox="0 0 48 48" fill="none" xmlns="http://www.w3.org/2000/svg">
<rect width="48" height="48" rx="6" fill="white"/>
<rect x="0.5" y="0.5" width="47" height="47" rx="5.5" stroke="#0059B3" stroke-opacity="0.16"/>
<path d="M23.209 22.6963C22.8691 22.8398 22.5967 23.0537 22.3945 23.3408C22.1924 23.6279 22.0898 23.9736 22.0898 24.3809C22.0898 24.9023 22.3096 25.3037 22.7461 25.5879C23.1592 25.8545 23.5928 25.9219 24.0469 25.7871C24.5713 25.6348 24.9258 25.2627 25.1133 24.6709C25.2012 24.3984 25.2451 24.0938 25.2451 23.7539V22.2832C24.876 22.2949 24.5303 22.3301 24.2051 22.3916C23.8799 22.4531 23.5488 22.5557 23.209 22.6963ZM24 10.875C16.752 10.875 10.875 16.752 10.875 24C10.875 31.248 16.752 37.125 24 37.125C31.248 37.125 37.125 31.248 37.125 24C37.125 16.752 31.248 10.875 24 10.875ZM25.0488 18.5713C24.8379 18.252 24.46 18.0908 23.915 18.0908C23.877 18.0908 23.8271 18.0938 23.7598 18.0996C23.6953 18.1055 23.5664 18.1436 23.3818 18.208C23.1965 18.2743 23.0202 18.3639 22.8574 18.4746C22.6963 18.5859 22.5205 18.7676 22.3301 19.0137C22.1426 19.2627 21.9932 19.5527 21.8818 19.8867L19.1279 19.6406C19.1279 19.2773 19.1982 18.917 19.333 18.5596C19.4707 18.2021 19.6787 17.8594 19.96 17.5342C20.2412 17.2061 20.5781 16.9189 20.9707 16.6729C21.3633 16.4238 21.8379 16.2275 22.3887 16.0781C22.9424 15.9287 23.5342 15.8555 24.1729 15.8555C24.7969 15.8555 25.3623 15.9316 25.8662 16.0811C26.3701 16.2334 26.7773 16.418 27.0791 16.6406C27.3698 16.8504 27.6259 17.1044 27.8379 17.3936C28.04 17.6748 28.1807 17.9355 28.2598 18.1758C28.3389 18.416 28.377 18.6357 28.377 18.8438V24.1904C28.377 24.3779 28.418 24.5713 28.5029 24.7705C28.5879 24.9697 28.6875 25.1455 28.8018 25.2979C28.916 25.4502 29.0332 25.5879 29.1533 25.7168C29.2734 25.8428 29.376 25.9424 29.4639 26.0068L29.584 26.1064L27.46 28.1396C27.2109 27.9141 26.9648 27.6885 26.7217 27.4541C26.4785 27.2197 26.2969 27.0439 26.1797 26.9238L26.001 26.7422C25.9307 26.6748 25.8545 26.5752 25.7666 26.4434C25.5293 26.8008 25.2246 27.1113 24.8555 27.375C24.4834 27.6387 24.085 27.832 23.6631 27.9521C23.2383 28.0723 22.8018 28.1426 22.3535 28.1602C21.9053 28.1777 21.4746 28.1162 21.0674 27.9697C20.6602 27.8232 20.291 27.627 19.9658 27.375C19.6406 27.123 19.3828 26.7832 19.1895 26.3496C18.9961 25.916 18.8994 25.4268 18.8994 24.873C18.8994 24.3633 18.9873 23.8975 19.1602 23.4756C19.3359 23.0508 19.5586 22.6992 19.834 22.418C20.1094 22.1367 20.4404 21.8848 20.8301 21.665C21.2197 21.4453 21.6035 21.2725 21.9785 21.1465C22.3535 21.0234 22.7578 20.918 23.1943 20.833C23.6309 20.748 24.0029 20.6924 24.3135 20.666C24.624 20.6396 24.9346 20.6191 25.2451 20.6074V19.4531C25.2451 19.0576 25.1777 18.7646 25.0488 18.5713ZM30.3369 29.6924C30.2549 29.7891 30.1172 29.9209 29.9238 30.0879C29.7305 30.2549 29.4316 30.46 29.0303 30.7061C28.6289 30.9521 28.1865 31.1748 27.7119 31.377C27.2344 31.5791 26.6484 31.7549 25.9512 31.9043C25.2568 32.0537 24.5391 32.127 23.8037 32.127C23.0596 32.127 22.3184 32.0332 21.5742 31.8457C20.8301 31.6582 20.1797 31.4268 19.6172 31.1514C19.0576 30.876 18.5156 30.5596 18.0029 30.208C17.4873 29.8535 17.0742 29.5371 16.7607 29.2559C16.4502 28.9746 16.1865 28.708 15.9756 28.4619C15.9258 28.4062 15.8936 28.3564 15.8818 28.3125C15.8701 28.2686 15.873 28.2305 15.8906 28.2041C15.9082 28.1777 15.9346 28.1572 15.9668 28.1396C16.0018 28.1241 16.0403 28.1181 16.0783 28.1222C16.1164 28.1263 16.1527 28.1404 16.1836 28.1631C17.3818 28.8721 18.3193 29.373 18.9932 29.6689C21.4219 30.7354 23.915 31.0078 26.4727 30.4863C27.6592 30.2432 28.8779 29.8359 30.1318 29.2617C30.2256 29.2266 30.3076 29.2178 30.375 29.2354C30.4424 29.2529 30.4775 29.3057 30.4775 29.3936C30.4775 29.4756 30.4307 29.5781 30.3369 29.6924ZM32.0918 28.8428C32.0391 29.168 31.9482 29.4756 31.8252 29.7744C31.6143 30.2754 31.3477 30.6533 31.0312 30.8994C30.9258 30.9844 30.8438 31.0107 30.7881 30.9814C30.7324 30.9521 30.7324 30.8789 30.7881 30.7646C30.9199 30.4922 31.0576 30.126 31.2041 29.6602C31.3506 29.1973 31.3711 28.8984 31.2656 28.7666C31.2334 28.7227 31.1865 28.6904 31.1191 28.6611C31.0547 28.6348 30.9697 28.6172 30.8672 28.6055C30.7646 28.5938 30.6709 28.5879 30.5918 28.582C30.5098 28.5762 30.4014 28.5762 30.2637 28.582C30.126 28.5879 30.0293 28.5938 29.9678 28.5996C29.8009 28.6159 29.6339 28.6305 29.4668 28.6436C29.4287 28.6494 29.3877 28.6553 29.3467 28.6582C29.3027 28.6611 29.2676 28.6641 29.2441 28.667L29.165 28.6758C29.1357 28.6787 29.1152 28.6816 29.1006 28.6816H29.0068L28.9775 28.6758L28.96 28.6611L28.9453 28.6348C28.9072 28.5381 29.0537 28.418 29.3848 28.2715C29.7158 28.125 30.0381 28.0342 30.3486 27.999C30.6357 27.9551 30.9727 27.9551 31.3594 27.9902C31.7461 28.0254 31.9834 28.0986 32.0713 28.207C32.1387 28.3096 32.1445 28.5205 32.0918 28.8428Z" fill="#1279E1"/>
</svg>
