<svg width="48" height="48" viewBox="0 0 48 48" fill="none" xmlns="http://www.w3.org/2000/svg">
<rect width="48" height="48" rx="6" fill="white"/>
<rect x="0.5" y="0.5" width="47" height="47" rx="5.5" stroke="#0059B3" stroke-opacity="0.16"/>
<path fill-rule="evenodd" clip-rule="evenodd" d="M24 15C21.6131 15 19.3239 15.9482 17.636 17.636C15.9482 19.3239 15 21.6131 15 24C15 26.3869 15.9482 28.6761 17.636 30.364C19.3239 32.0518 21.6131 33 24 33C26.3869 33 28.6761 32.0518 30.364 30.364C32.0518 28.6761 33 26.3869 33 24C33 21.6131 32.0518 19.3239 30.364 17.636C28.6761 15.9482 26.3869 15 24 15ZM12 24C12 20.8174 13.2643 17.7652 15.5147 15.5147C17.7652 13.2643 20.8174 12 24 12C27.1826 12 30.2348 13.2643 32.4853 15.5147C34.7357 17.7652 36 20.8174 36 24C36 27.1826 34.7357 30.2348 32.4853 32.4853C30.2348 34.7357 27.1826 36 24 36C20.8174 36 17.7652 34.7357 15.5147 32.4853C13.2643 30.2348 12 27.1826 12 24Z" fill="#1279E1"/>
<path fill-rule="evenodd" clip-rule="evenodd" d="M32.4855 15.5145C32.7667 15.7958 32.9247 16.1773 32.9247 16.575C32.9247 16.9727 32.7667 17.3542 32.4855 17.6355L17.6355 32.4855C17.3526 32.7587 16.9737 32.9099 16.5804 32.9065C16.1871 32.9031 15.8109 32.7453 15.5328 32.4672C15.2547 32.1891 15.0969 31.8129 15.0935 31.4196C15.0901 31.0263 15.2413 30.6474 15.5145 30.3645L30.3645 15.5145C30.6458 15.2333 31.0273 15.0753 31.425 15.0753C31.8228 15.0753 32.2042 15.2333 32.4855 15.5145Z" fill="#1279E1"/>
</svg>
