<svg width="48" height="48" viewBox="0 0 48 48" fill="none" xmlns="http://www.w3.org/2000/svg">
<rect width="48" height="48" rx="6" fill="white"/>
<rect x="0.5" y="0.5" width="47" height="47" rx="5.5" stroke="#0059B3" stroke-opacity="0.16"/>
<path d="M25.7675 15.25H34C34.3315 15.25 34.6495 15.3817 34.8839 15.6161C35.1183 15.8505 35.25 16.1685 35.25 16.5V17.75H12.75V14C12.75 13.6685 12.8817 13.3505 13.1161 13.1161C13.3505 12.8817 13.6685 12.75 14 12.75H23.2675L25.7675 15.25ZM12.8587 20.25H35.1412C35.3142 20.2499 35.4853 20.2857 35.6437 20.3552C35.8021 20.4246 35.9443 20.5261 36.0615 20.6534C36.1786 20.7806 36.268 20.9308 36.3242 21.0944C36.3803 21.258 36.4019 21.4314 36.3875 21.6038L35.3462 34.1038C35.3202 34.4163 35.1776 34.7077 34.9468 34.92C34.7159 35.1324 34.4137 35.2501 34.1 35.25H13.9C13.5866 35.2498 13.2846 35.1319 13.054 34.9196C12.8234 34.7073 12.681 34.4161 12.655 34.1038L11.6125 21.6038C11.5981 21.4314 11.6197 21.258 11.6758 21.0944C11.732 20.9308 11.8214 20.7806 11.9385 20.6534C12.0557 20.5261 12.1979 20.4246 12.3563 20.3552C12.5147 20.2857 12.6858 20.2499 12.8587 20.25Z" fill="#1279E1"/>
</svg>
