<svg width="48" height="48" viewBox="0 0 48 48" fill="none" xmlns="http://www.w3.org/2000/svg">
<rect width="48" height="48" rx="6" fill="white"/>
<rect x="0.5" y="0.5" width="47" height="47" rx="5.5" stroke="#0059B3" stroke-opacity="0.16"/>
<path d="M18.3333 27.3333C17.8597 27.3333 17.4544 27.178 17.1174 26.8674C16.7804 26.5568 16.6117 26.183 16.6111 25.746V17.8095C16.6111 17.373 16.7799 16.9994 17.1174 16.6888C17.455 16.3783 17.8603 16.2227 18.3333 16.2222H19.1944V14.6349C19.1944 13.537 19.6144 12.6013 20.4542 11.8277C21.2941 11.0542 22.3093 10.6672 23.5 10.6666C24.6912 10.6666 25.7067 11.0537 26.5466 11.8277C27.3865 12.6018 27.8061 13.5375 27.8055 14.6349V16.2222H28.6666C29.1403 16.2222 29.5458 16.3777 29.8834 16.6888C30.2209 17 30.3894 17.3735 30.3889 17.8095V25.746C30.3889 26.1825 30.2204 26.5563 29.8834 26.8674C29.5464 27.1785 29.1408 27.3338 28.6666 27.3333H18.3333ZM23.5 23.365C23.9736 23.365 24.3792 23.2097 24.7167 22.8992C25.0543 22.5886 25.2228 22.2148 25.2222 21.7777C25.2222 21.3412 25.0537 20.9677 24.7167 20.6571C24.3797 20.3465 23.9742 20.191 23.5 20.1904C23.0264 20.1904 22.6211 20.346 22.2841 20.6571C21.9471 20.9682 21.7783 21.3418 21.7778 21.7777C21.7778 22.2142 21.9465 22.5881 22.2841 22.8992C22.6216 23.2103 23.0269 23.3656 23.5 23.365ZM20.9166 16.2222H26.0833V14.6349C26.0833 13.9735 25.8321 13.4113 25.3298 12.9484C24.8275 12.4854 24.2176 12.2539 23.5 12.2539C22.7824 12.2539 22.1724 12.4854 21.6701 12.9484C21.1678 13.4113 20.9166 13.9735 20.9166 14.6349V16.2222Z" fill="#1279E1"/>
<path d="M14.7406 35.3459H16.5066C16.483 35.8572 16.3451 36.3079 16.0928 36.6981C15.8406 37.0883 15.4907 37.3927 15.0434 37.6114C14.5993 37.8266 14.0746 37.9343 13.4691 37.9343C12.978 37.9343 12.5391 37.8519 12.1522 37.6871C11.7688 37.5222 11.4425 37.2851 11.1734 36.9756C10.9077 36.6662 10.7042 36.2911 10.5629 35.8505C10.425 35.4098 10.356 34.9137 10.356 34.362V33.9634C10.356 33.4118 10.4283 32.9156 10.573 32.475C10.721 32.031 10.9295 31.6542 11.1986 31.3448C11.4711 31.0319 11.7974 30.7931 12.1775 30.6283C12.5576 30.4635 12.9797 30.3811 13.4439 30.3811C14.083 30.3811 14.6229 30.4954 15.0635 30.7242C15.5042 30.9529 15.8456 31.2674 16.0878 31.6677C16.33 32.0646 16.4729 32.517 16.5167 33.0249H14.7507C14.744 32.7491 14.6969 32.5187 14.6094 32.3337C14.522 32.1453 14.3841 32.0041 14.1957 31.9099C14.0073 31.8157 13.7567 31.7686 13.4439 31.7686C13.2253 31.7686 13.0352 31.809 12.8738 31.8897C12.7123 31.9704 12.5778 32.0982 12.4701 32.2732C12.3625 32.4481 12.2817 32.6751 12.2279 32.9543C12.1775 33.2301 12.1522 33.5631 12.1522 33.9533V34.362C12.1522 34.7522 12.1758 35.0852 12.2229 35.361C12.27 35.6369 12.3457 35.8622 12.4499 36.0372C12.5542 36.2121 12.6888 36.3416 12.8536 36.4257C13.0218 36.5064 13.2269 36.5468 13.4691 36.5468C13.7382 36.5468 13.9653 36.5047 14.1503 36.4206C14.3353 36.3332 14.4783 36.202 14.5792 36.0271C14.6801 35.8488 14.7339 35.6217 14.7406 35.3459ZM21.5219 35.3459H23.2878C23.2643 35.8572 23.1264 36.3079 22.8741 36.6981C22.6218 37.0883 22.272 37.3927 21.8246 37.6114C21.3806 37.8266 20.8559 37.9343 20.2504 37.9343C19.7593 37.9343 19.3203 37.8519 18.9335 37.6871C18.55 37.5222 18.2237 37.2851 17.9547 36.9756C17.6889 36.6662 17.4854 36.2911 17.3441 35.8505C17.2062 35.4098 17.1373 34.9137 17.1373 34.362V33.9634C17.1373 33.4118 17.2096 32.9156 17.3542 32.475C17.5022 32.031 17.7108 31.6542 17.9799 31.3448C18.2523 31.0319 18.5786 30.7931 18.9587 30.6283C19.3388 30.4635 19.761 30.3811 20.2252 30.3811C20.8643 30.3811 21.4041 30.4954 21.8448 30.7242C22.2854 30.9529 22.6269 31.2674 22.869 31.6677C23.1112 32.0646 23.2542 32.517 23.2979 33.0249H21.532C21.5252 32.7491 21.4781 32.5187 21.3907 32.3337C21.3032 32.1453 21.1653 32.0041 20.9769 31.9099C20.7886 31.8157 20.538 31.7686 20.2252 31.7686C20.0065 31.7686 19.8165 31.809 19.655 31.8897C19.4936 31.9704 19.359 32.0982 19.2514 32.2732C19.1437 32.4481 19.063 32.6751 19.0092 32.9543C18.9587 33.2301 18.9335 33.5631 18.9335 33.9533V34.362C18.9335 34.7522 18.957 35.0852 19.0041 35.361C19.0512 35.6369 19.1269 35.8622 19.2312 36.0372C19.3355 36.2121 19.47 36.3416 19.6348 36.4257C19.803 36.5064 20.0082 36.5468 20.2504 36.5468C20.5195 36.5468 20.7465 36.5047 20.9315 36.4206C21.1165 36.3332 21.2595 36.202 21.3604 36.0271C21.4613 35.8488 21.5151 35.6217 21.5219 35.3459ZM27.0569 35.3409H25.2304V33.9735H27.0569C27.3058 33.9735 27.5076 33.9315 27.6623 33.8474C27.8171 33.7633 27.9297 33.6472 28.0004 33.4992C28.0744 33.3479 28.1114 33.178 28.1114 32.9896C28.1114 32.7878 28.0744 32.6011 28.0004 32.4296C27.9297 32.258 27.8171 32.1201 27.6623 32.0158C27.5076 31.9082 27.3058 31.8544 27.0569 31.8544H25.8964V37.8334H24.1254V30.487H27.0569C27.6455 30.487 28.1518 30.5947 28.5756 30.8099C29.0028 31.0252 29.3307 31.3212 29.5595 31.698C29.7882 32.0713 29.9026 32.4985 29.9026 32.9795C29.9026 33.4538 29.7882 33.8676 29.5595 34.2207C29.3307 34.5739 29.0028 34.8498 28.5756 35.0482C28.1518 35.2433 27.6455 35.3409 27.0569 35.3409ZM33.0712 32.031L31.28 37.8334H29.3778L32.0772 30.487H33.2831L33.0712 32.031ZM34.5546 37.8334L32.7584 32.031L32.5263 30.487H33.7473L36.4618 37.8334H34.5546ZM34.4839 35.0936V36.461H30.7149V35.0936H34.4839Z" fill="#1279E1"/>
</svg>
