<svg width="48" height="48" viewBox="0 0 48 48" fill="none" xmlns="http://www.w3.org/2000/svg">
<rect width="48" height="48" rx="6" fill="white"/>
<rect x="0.5" y="0.5" width="47" height="47" rx="5.5" stroke="#0059B3" stroke-opacity="0.16"/>
<path d="M16.5 36.5C15.8125 36.5 15.2242 36.2554 14.735 35.7663C14.2458 35.2771 14.0008 34.6883 14 34V21.5C14 20.8125 14.245 20.2242 14.735 19.735C15.225 19.2458 15.8133 19.0008 16.5 19H17.75V16.5C17.75 14.7708 18.3596 13.2971 19.5788 12.0788C20.7979 10.8604 22.2717 10.2508 24 10.25C25.7292 10.25 27.2033 10.8596 28.4225 12.0788C29.6417 13.2979 30.2508 14.7717 30.25 16.5V19H31.5C32.1875 19 32.7763 19.245 33.2663 19.735C33.7563 20.225 34.0008 20.8133 34 21.5V34C34 34.6875 33.7554 35.2763 33.2663 35.7663C32.7771 36.2563 32.1883 36.5008 31.5 36.5H16.5ZM24 30.25C24.6875 30.25 25.2763 30.0054 25.7663 29.5163C26.2563 29.0271 26.5008 28.4383 26.5 27.75C26.5 27.0625 26.2554 26.4742 25.7663 25.985C25.2771 25.4958 24.6883 25.2508 24 25.25C23.3125 25.25 22.7242 25.495 22.235 25.985C21.7458 26.475 21.5008 27.0633 21.5 27.75C21.5 28.4375 21.745 29.0263 22.235 29.5163C22.725 30.0063 23.3133 30.2508 24 30.25ZM20.25 19H27.75V16.5C27.75 15.4583 27.3854 14.5729 26.6563 13.8438C25.9271 13.1146 25.0417 12.75 24 12.75C22.9583 12.75 22.0729 13.1146 21.3438 13.8438C20.6146 14.5729 20.25 15.4583 20.25 16.5V19Z" fill="#1279E1"/>
</svg>
