<svg width="48" height="48" viewBox="0 0 48 48" fill="none" xmlns="http://www.w3.org/2000/svg">
<rect width="48" height="48" rx="6" fill="white"/>
<rect x="0.5" y="0.5" width="47" height="47" rx="5.5" stroke="#0059B3" stroke-opacity="0.16"/>
<path d="M24 12V18.75C24 19.3467 24.2371 19.919 24.659 20.341C25.081 20.7629 25.6533 21 26.25 21H33V33.75C33 34.3467 32.7629 34.919 32.341 35.341C31.919 35.7629 31.3467 36 30.75 36H21.948C22.323 35.2905 22.5 34.518 22.5 33.75C22.5001 32.8143 22.1504 31.9124 21.5196 31.2213C20.8887 30.5302 20.0223 30.1 19.0905 30.015C19.7173 29.3213 20.1124 28.4495 20.2209 27.5209C20.3295 26.5923 20.1462 25.6529 19.6964 24.8333C19.2465 24.0137 18.5526 23.3545 17.711 22.9474C16.8694 22.5403 15.9218 22.4054 15 22.5615V14.25C15 13.6533 15.2371 13.081 15.659 12.659C16.081 12.2371 16.6533 12 17.25 12H24ZM25.5 12.375V18.75C25.5 18.9489 25.579 19.1397 25.7197 19.2803C25.8603 19.421 26.0511 19.5 26.25 19.5H32.625L25.5 12.375ZM18.75 27C18.75 27.7956 18.4339 28.5587 17.8713 29.1213C17.3087 29.6839 16.5456 30 15.75 30C14.9544 30 14.1913 29.6839 13.6287 29.1213C13.0661 28.5587 12.75 27.7956 12.75 27C12.75 26.2044 13.0661 25.4413 13.6287 24.8787C14.1913 24.3161 14.9544 24 15.75 24C16.5456 24 17.3087 24.3161 17.8713 24.8787C18.4339 25.4413 18.75 26.2044 18.75 27ZM21 33.75C21 35.6175 19.5 37.5 15.75 37.5C12 37.5 10.5 35.625 10.5 33.75C10.5 33.1533 10.7371 32.581 11.159 32.159C11.581 31.7371 12.1533 31.5 12.75 31.5H18.75C19.3467 31.5 19.919 31.7371 20.341 32.159C20.7629 32.581 21 33.1533 21 33.75Z" fill="#1279E1"/>
</svg>
