<svg width="48" height="48" viewBox="0 0 48 48" fill="none" xmlns="http://www.w3.org/2000/svg">
<rect width="48" height="48" rx="6" fill="white"/>
<rect x="0.5" y="0.5" width="47" height="47" rx="5.5" stroke="#0059B3" stroke-opacity="0.16"/>
<path d="M12.75 19V16.5C12.75 15.837 13.0134 15.2011 13.4822 14.7322C13.9511 14.2634 14.587 14 15.25 14H32.75C33.413 14 34.0489 14.2634 34.5178 14.7322C34.9866 15.2011 35.25 15.837 35.25 16.5V19M12.75 19V31.5C12.75 32.163 13.0134 32.7989 13.4822 33.2678C13.9511 33.7366 14.587 34 15.25 34H20.25M12.75 19H35.25H12.75ZM35.25 19V21.5V19Z" fill="white"/>
<path d="M12.75 19V16.5C12.75 15.837 13.0134 15.2011 13.4822 14.7322C13.9511 14.2634 14.587 14 15.25 14H32.75C33.413 14 34.0489 14.2634 34.5178 14.7322C34.9866 15.2011 35.25 15.837 35.25 16.5V19M12.75 19V31.5C12.75 32.163 13.0134 32.7989 13.4822 33.2678C13.9511 33.7366 14.587 34 15.25 34H20.25M12.75 19H35.25M35.25 19V21.5" stroke="#1279E1" stroke-width="1.5" stroke-linecap="round" stroke-linejoin="round"/>
<path fill-rule="evenodd" clip-rule="evenodd" d="M31.5 24V25.25H34C34.3315 25.25 34.6495 25.3817 34.8839 25.6161C35.1183 25.8505 35.25 26.1685 35.25 26.5V29H36.5C36.8315 29 37.1495 29.1317 37.3839 29.3661C37.6183 29.6005 37.75 29.9185 37.75 30.25C37.75 31.7334 37.3101 33.1834 36.486 34.4168C35.6619 35.6501 34.4906 36.6114 33.1201 37.1791C31.7497 37.7468 30.2417 37.8953 28.7868 37.6059C27.332 37.3165 25.9956 36.6022 24.9467 35.5533C23.8978 34.5044 23.1835 33.168 22.8941 31.7132C22.6047 30.2583 22.7532 28.7503 23.3209 27.3799C23.8886 26.0094 24.8499 24.8381 26.0832 24.014C27.3166 23.1899 28.7666 22.75 30.25 22.75C30.5815 22.75 30.8995 22.8817 31.1339 23.1161C31.3683 23.3505 31.5 23.6685 31.5 24ZM26.5 29C26.5 28.6685 26.6317 28.3505 26.8661 28.1161C27.1005 27.8817 27.4185 27.75 27.75 27.75H27.7513C28.0828 27.75 28.4007 27.8817 28.6351 28.1161C28.8696 28.3505 29.0013 28.6685 29.0013 29C29.0013 29.3315 28.8696 29.6495 28.6351 29.8839C28.4007 30.1183 28.0828 30.25 27.7513 30.25H27.75C27.4185 30.25 27.1005 30.1183 26.8661 29.8839C26.6317 29.6495 26.5 29.3315 26.5 29ZM31.5 31.5C31.1685 31.5 30.8505 31.6317 30.6161 31.8661C30.3817 32.1005 30.25 32.4185 30.25 32.75C30.25 33.0815 30.3817 33.3995 30.6161 33.6339C30.8505 33.8683 31.1685 34 31.5 34C31.8315 34 32.1507 33.8683 32.3851 33.6339C32.6196 33.3995 32.7513 33.0815 32.7513 32.75C32.7513 32.4185 32.6196 32.1005 32.3851 31.8661C32.1507 31.6317 31.8315 31.5 31.5 31.5Z" fill="#1279E1"/>
<path d="M12.75 16.5C12.75 15.837 13.0134 15.2011 13.4822 14.7322C13.9511 14.2634 14.587 14 15.25 14H32.75C33.413 14 34.0489 14.2634 34.5178 14.7322C34.9866 15.2011 35.25 15.837 35.25 16.5V19H12.75V16.5Z" fill="#1279E1"/>
</svg>
