<svg width="48" height="48" viewBox="0 0 48 48" fill="none" xmlns="http://www.w3.org/2000/svg">
<rect width="48" height="48" rx="6" fill="white"/>
<rect x="0.5" y="0.5" width="47" height="47" rx="5.5" stroke="#0059B3" stroke-opacity="0.16"/>
<path d="M16.2393 35.8335H17.7773C17.7568 36.2788 17.6367 36.6714 17.417 37.0112C17.1973 37.3511 16.8926 37.6162 16.5029 37.8066C16.1162 37.9941 15.6592 38.0879 15.1318 38.0879C14.7041 38.0879 14.3218 38.0161 13.9849 37.8726C13.6509 37.729 13.3667 37.5225 13.1323 37.2529C12.9009 36.9834 12.7236 36.6567 12.6006 36.2729C12.4805 35.8892 12.4204 35.457 12.4204 34.9766V34.6294C12.4204 34.1489 12.4834 33.7168 12.6094 33.333C12.7383 32.9463 12.9199 32.6182 13.1543 32.3486C13.3916 32.0762 13.6758 31.8682 14.0068 31.7246C14.3379 31.5811 14.7056 31.5093 15.1099 31.5093C15.6665 31.5093 16.1367 31.6089 16.5205 31.8081C16.9043 32.0073 17.2017 32.2812 17.4126 32.6299C17.6235 32.9756 17.748 33.3696 17.7861 33.812H16.248C16.2422 33.5718 16.2012 33.3711 16.125 33.21C16.0488 33.0459 15.9287 32.9229 15.7646 32.8408C15.6006 32.7588 15.3823 32.7178 15.1099 32.7178C14.9194 32.7178 14.7539 32.7529 14.6133 32.8232C14.4727 32.8936 14.3555 33.0049 14.2617 33.1572C14.168 33.3096 14.0977 33.5073 14.0508 33.7505C14.0068 33.9907 13.9849 34.2808 13.9849 34.6206V34.9766C13.9849 35.3164 14.0054 35.6064 14.0464 35.8467C14.0874 36.0869 14.1533 36.2832 14.2441 36.4355C14.335 36.5879 14.4521 36.7007 14.5957 36.7739C14.7422 36.8442 14.9209 36.8794 15.1318 36.8794C15.3662 36.8794 15.564 36.8428 15.7251 36.7695C15.8862 36.6934 16.0107 36.5791 16.0986 36.4268C16.1865 36.2715 16.2334 36.0737 16.2393 35.8335ZM21.0601 35.8291H19.4692V34.6382H21.0601C21.2769 34.6382 21.4526 34.6016 21.5874 34.5283C21.7222 34.4551 21.8203 34.354 21.8818 34.2251C21.9463 34.0933 21.9785 33.9453 21.9785 33.7812C21.9785 33.6055 21.9463 33.4429 21.8818 33.2935C21.8203 33.144 21.7222 33.0239 21.5874 32.9331C21.4526 32.8394 21.2769 32.7925 21.0601 32.7925H20.0493V38H18.5068V31.6016H21.0601C21.5728 31.6016 22.0137 31.6953 22.3828 31.8828C22.7549 32.0703 23.0405 32.3281 23.2397 32.6562C23.439 32.9814 23.5386 33.3535 23.5386 33.7725C23.5386 34.1855 23.439 34.5459 23.2397 34.8535C23.0405 35.1611 22.7549 35.4014 22.3828 35.5742C22.0137 35.7441 21.5728 35.8291 21.0601 35.8291ZM24.3691 31.6016H26.8872C27.3794 31.6016 27.8071 31.6748 28.1704 31.8213C28.5337 31.9678 28.8135 32.1846 29.0098 32.4717C29.209 32.7588 29.3086 33.1133 29.3086 33.5352C29.3086 33.9014 29.2515 34.2075 29.1372 34.4536C29.0229 34.6997 28.8633 34.9033 28.6582 35.0645C28.4561 35.2227 28.2202 35.353 27.9507 35.4556L27.4453 35.7412H25.3315L25.3228 34.5503H26.8872C27.0835 34.5503 27.2461 34.5151 27.375 34.4448C27.5039 34.3745 27.6006 34.2749 27.665 34.146C27.7324 34.0142 27.7661 33.8574 27.7661 33.6758C27.7661 33.4912 27.7324 33.333 27.665 33.2012C27.5977 33.0693 27.498 32.9683 27.3662 32.8979C27.2373 32.8276 27.0776 32.7925 26.8872 32.7925H25.9116V38H24.3691V31.6016ZM27.8716 38L26.4565 35.1699L28.0913 35.1611L29.5239 37.9341V38H27.8716ZM32.9517 32.9463L31.3916 38H29.7349L32.0859 31.6016H33.1362L32.9517 32.9463ZM34.2437 38L32.6792 32.9463L32.4771 31.6016H33.5405L35.9048 38H34.2437ZM34.1821 35.6138V36.8047H30.8994V35.6138H34.1821Z" fill="#1279E1"/>
<path d="M18.3392 28.312C17.8334 28.312 17.4006 28.1321 17.0407 27.7722C16.6809 27.4123 16.5006 26.9792 16.5 26.4728V17.2766C16.5 16.7708 16.6802 16.3379 17.0407 15.9781C17.4012 15.6182 17.8341 15.4379 18.3392 15.4373H19.2589V13.5981C19.2589 12.326 19.7073 11.2417 20.6043 10.3454C21.5012 9.44908 22.5854 9.00061 23.8569 9C25.1291 9 26.2136 9.44847 27.1106 10.3454C28.0075 11.2423 28.4557 12.3266 28.455 13.5981V15.4373H29.3747C29.8805 15.4373 30.3136 15.6176 30.6741 15.9781C31.0346 16.3386 31.2145 16.7714 31.2139 17.2766V26.4728C31.2139 26.9785 31.034 27.4117 30.6741 27.7722C30.3142 28.1327 29.8811 28.3126 29.3747 28.312H18.3392ZM23.8569 23.7139C24.3627 23.7139 24.7959 23.534 25.1564 23.1741C25.5169 22.8142 25.6968 22.3811 25.6962 21.8747C25.6962 21.3689 25.5162 20.936 25.1564 20.5762C24.7965 20.2163 24.3634 20.036 23.8569 20.0354C23.3512 20.0354 22.9183 20.2157 22.5584 20.5762C22.1986 20.9366 22.0183 21.3695 22.0177 21.8747C22.0177 22.3805 22.198 22.8136 22.5584 23.1741C22.9189 23.5346 23.3518 23.7145 23.8569 23.7139ZM21.0981 15.4373H26.6158V13.5981C26.6158 12.8317 26.3476 12.1803 25.8111 11.6439C25.2747 11.1075 24.6233 10.8392 23.8569 10.8392C23.0906 10.8392 22.4392 11.1075 21.9028 11.6439C21.3663 12.1803 21.0981 12.8317 21.0981 13.5981V15.4373Z" fill="#1279E1"/>
</svg>
