<svg width="48" height="48" viewBox="0 0 48 48" fill="none" xmlns="http://www.w3.org/2000/svg">
<rect width="48" height="48" rx="6" fill="white"/>
<rect x="0.5" y="0.5" width="47" height="47" rx="5.5" stroke="#0059B3" stroke-opacity="0.16"/>
<path d="M11.875 34.35L23.875 22.35L22.125 20.575L21.225 21.4625C21.1094 21.5784 20.972 21.6703 20.8208 21.733C20.6696 21.7958 20.5075 21.8281 20.3437 21.8281C20.18 21.8281 20.0179 21.7958 19.8667 21.733C19.7155 21.6703 19.5781 21.5784 19.4625 21.4625L18.575 20.575C18.4591 20.4594 18.3672 20.322 18.3045 20.1708C18.2417 20.0196 18.2094 19.8575 18.2094 19.6938C18.2094 19.53 18.2417 19.3679 18.3045 19.2167C18.3672 19.0655 18.4591 18.9281 18.575 18.8125L25.65 11.7375C25.7656 11.6216 25.903 11.5297 26.0542 11.467C26.2054 11.4042 26.3675 11.3719 26.5312 11.3719C26.695 11.3719 26.8571 11.4042 27.0083 11.467C27.1595 11.5297 27.2969 11.6216 27.4125 11.7375L28.3 12.625C28.7875 13.1125 28.7875 13.9 28.3 14.3875L27.4125 15.25L29.1875 17.0375C29.3031 16.9216 29.4405 16.8297 29.5917 16.767C29.7429 16.7042 29.905 16.6719 30.0687 16.6719C30.2325 16.6719 30.3946 16.7042 30.5458 16.767C30.697 16.8297 30.8344 16.9216 30.95 17.0375C31.4375 17.525 31.4375 18.325 30.95 18.8125L32.7125 20.575L33.6 19.6875C34.0875 19.2 34.8875 19.2 35.375 19.6875L36.25 20.575C36.7375 21.0625 36.7375 21.8625 36.25 22.35L29.1875 29.4125C28.7 29.9 27.9 29.9 27.4125 29.4125L26.5375 28.5375C26.4188 28.4222 26.3245 28.2842 26.26 28.1318C26.1956 27.9793 26.1624 27.8155 26.1624 27.65C26.1624 27.4845 26.1956 27.3207 26.26 27.1682C26.3245 27.0158 26.4188 26.8778 26.5375 26.7625L27.4125 25.875L25.65 24.1125L13.6375 36.125C13.5219 36.2409 13.3845 36.3328 13.2333 36.3955C13.0821 36.4583 12.92 36.4906 12.7562 36.4906C12.5925 36.4906 12.4304 36.4583 12.2792 36.3955C12.128 36.3328 11.9906 36.2409 11.875 36.125C11.3875 35.6375 11.3875 34.8375 11.875 34.35ZM34 32.75C34.663 32.75 35.2989 33.0134 35.7678 33.4822C36.2366 33.9511 36.5 34.587 36.5 35.25V36.5H24V35.25C24 34.587 24.2634 33.9511 24.7322 33.4822C25.2011 33.0134 25.837 32.75 26.5 32.75H34Z" fill="#1279E1"/>
</svg>
