<svg width="48" height="48" viewBox="0 0 48 48" fill="none" xmlns="http://www.w3.org/2000/svg">
<rect width="48" height="48" rx="6" fill="white"/>
<rect x="0.5" y="0.5" width="47" height="47" rx="5.5" stroke="#0059B3" stroke-opacity="0.16"/>
<path d="M20.9998 19.0589H14V12M14.4074 30.8571C15.712 32.8829 17.6262 34.4335 19.869 35.2814C22.1119 36.1292 24.5652 36.2296 26.8688 35.5678C29.1724 34.906 31.2049 33.5169 32.6679 31.6044C34.131 29.6919 34.9475 27.3568 34.9976 24.9419C35.0476 22.5269 34.3286 20.1594 32.9461 18.1869C31.5637 16.2144 29.5905 14.7409 27.3163 13.9826C25.0422 13.2242 22.5869 13.2211 20.3108 13.9737C18.0348 14.7263 16.058 16.1948 14.6706 18.1638" stroke="#1279E1" stroke-width="2" stroke-linecap="round" stroke-linejoin="round"/>
<path d="M19.8 25.2H28.2V26C28.2 27.8856 28.2 28.8284 27.6142 29.4142C27.0284 30 26.0856 30 24.2 30H23.8C21.9144 30 20.9716 30 20.3858 29.4142C19.8 28.8284 19.8 27.8856 19.8 26V25.2Z" fill="#1279E1"/>
<path d="M18.8153 23.6153L19.8 24.6L22.2 22.2L20.9887 21.3925C20.6359 21.1573 20.1732 21.1701 19.834 21.4245L18.9224 22.1082C18.4356 22.4733 18.385 23.185 18.8153 23.6153Z" fill="#1279E1"/>
<path d="M29.1847 23.6153L28.2 24.6L25.8 22.2L27.0113 21.3925C27.3641 21.1573 27.8268 21.1701 28.166 21.4245L29.0776 22.1082C29.5644 22.4733 29.615 23.185 29.1847 23.6153Z" fill="#1279E1"/>
<path d="M27.6 24.6V25.2H20.4V24.6L22.2 22.8H25.8L27.6 24.6Z" stroke="#1279E1" stroke-width="1.2" stroke-linecap="round"/>
</svg>
