<svg width="48" height="48" viewBox="0 0 48 48" fill="none" xmlns="http://www.w3.org/2000/svg">
<rect width="48" height="48" rx="6" fill="white"/>
<rect x="0.5" y="0.5" width="47" height="47" rx="5.5" stroke="#0059B3" stroke-opacity="0.16"/>
<path d="M18.3335 32.3333C17.1809 32.3333 16.0975 32.1149 15.0835 31.678C14.0695 31.2412 13.1876 30.6484 12.4379 29.8997C11.6876 29.1504 11.094 28.2694 10.6572 27.2567C10.2192 26.244 10.0002 25.1621 10.0002 24.0109C10.0002 22.882 10.2177 21.8144 10.6528 20.8081C11.0879 19.8019 11.68 18.9171 12.4291 18.1537C13.1782 17.391 14.0554 16.7857 15.0607 16.3377C16.0665 15.8903 17.1379 15.6667 18.2747 15.6667C18.4981 15.6667 18.7268 15.6754 18.9607 15.6929C19.1946 15.7116 19.4291 15.7405 19.6642 15.7797C19.6233 16.4367 19.7037 17.0318 19.9054 17.565C20.1078 18.0988 20.406 18.5535 20.8002 18.929C21.1937 19.3046 21.6712 19.5849 22.2326 19.77C22.794 19.9558 23.4192 20.0346 24.1081 20.0066C23.9303 20.868 24.1116 21.6424 24.6519 22.3298C25.1923 23.0172 25.8604 23.4147 26.6563 23.5221L26.6651 23.6264C26.6663 23.6579 26.6668 23.6924 26.6668 23.7297C26.6668 24.9077 26.447 26.0174 26.0072 27.0587C25.5674 28.1 24.9706 29.0125 24.2168 29.7963C23.4625 30.5789 22.5803 31.1974 21.5703 31.6518C20.5604 32.1061 19.4815 32.3333 18.3335 32.3333ZM17.0265 22.0907C17.3411 22.0907 17.6095 21.9768 17.8317 21.749C18.054 21.5212 18.1651 21.2502 18.1651 20.936C18.1651 20.6218 18.0534 20.3538 17.83 20.1318C17.6072 19.9099 17.3364 19.7989 17.0177 19.7989C16.7084 19.7989 16.4399 19.9105 16.2124 20.1336C15.9844 20.3561 15.8703 20.6265 15.8703 20.9448C15.8703 21.2538 15.9844 21.5218 16.2124 21.749C16.4405 21.9768 16.7119 22.0907 17.0265 22.0907ZM15.2721 26.4709C15.5867 26.4709 15.8551 26.357 16.0774 26.1292C16.2996 25.9014 16.4107 25.6304 16.4107 25.3162C16.4107 25.002 16.299 24.734 16.0756 24.512C15.8528 24.2901 15.582 24.1791 15.2633 24.1791C14.954 24.1791 14.6855 24.2907 14.4581 24.5138C14.23 24.7363 14.116 25.0067 14.116 25.325C14.116 25.634 14.23 25.902 14.4581 26.1292C14.6861 26.357 14.9575 26.4709 15.2721 26.4709ZM20.9739 27.3469C21.1715 27.3469 21.3376 27.2768 21.4721 27.1367C21.6066 26.9965 21.6739 26.8277 21.6739 26.6303C21.6739 26.4329 21.6057 26.267 21.4695 26.1327C21.3338 25.9984 21.1657 25.9312 20.9651 25.9312C20.7727 25.9312 20.6066 25.9993 20.4668 26.1353C20.3265 26.2708 20.2563 26.4387 20.2563 26.6391C20.2563 26.8312 20.3265 26.9971 20.4668 27.1367C20.6072 27.2768 20.7762 27.3469 20.9739 27.3469Z" fill="#1279E1"/>
<path d="M32.9998 34C33.6914 34 34.3414 33.8689 34.9498 33.6068C35.5583 33.3447 36.0874 32.989 36.5372 32.5398C36.9874 32.0902 37.3435 31.5616 37.6056 30.954C37.8684 30.3464 37.9998 29.6972 37.9998 29.0066C37.9998 28.3292 37.8693 27.6887 37.6083 27.0849C37.3472 26.4811 36.9919 25.9502 36.5425 25.4922C36.093 25.0346 35.5667 24.6714 34.9635 24.4026C34.36 24.1342 33.7172 24 33.0351 24C32.9011 24 32.7639 24.0053 32.6235 24.0158C32.4832 24.027 32.3425 24.0443 32.2014 24.0678C32.226 24.462 32.1777 24.8191 32.0567 25.139C31.9353 25.4593 31.7563 25.7321 31.5198 25.9574C31.2837 26.1827 30.9972 26.3509 30.6604 26.462C30.3235 26.5735 29.9484 26.6208 29.5351 26.6039C29.6418 27.1208 29.533 27.5855 29.2088 27.9979C28.8846 28.4103 28.4837 28.6488 28.0061 28.7133L28.0009 28.7758C28.0002 28.7947 27.9998 28.8154 27.9998 28.8378C27.9998 29.5446 28.1318 30.2104 28.3956 30.8352C28.6595 31.46 29.0176 32.0075 29.4698 32.4778C29.9225 32.9474 30.4518 33.3184 31.0577 33.5911C31.6637 33.8637 32.3111 34 32.9998 34ZM33.784 27.8544C33.5953 27.8544 33.4342 27.7861 33.3009 27.6494C33.1676 27.5127 33.1009 27.3502 33.1009 27.1616C33.1009 26.9731 33.1679 26.8123 33.3019 26.6791C33.4356 26.5459 33.5981 26.4794 33.7893 26.4794C33.9749 26.4794 34.136 26.5463 34.2725 26.6802C34.4093 26.8137 34.4777 26.9759 34.4777 27.1669C34.4777 27.3523 34.4093 27.5131 34.2725 27.6494C34.1356 27.7861 33.9728 27.8544 33.784 27.8544ZM34.8367 30.4825C34.6479 30.4825 34.4868 30.4142 34.3535 30.2775C34.2202 30.1409 34.1535 29.9783 34.1535 29.7898C34.1535 29.6012 34.2205 29.4404 34.3546 29.3072C34.4883 29.1741 34.6507 29.1075 34.8419 29.1075C35.0276 29.1075 35.1886 29.1744 35.3251 29.3083C35.4619 29.4418 35.5304 29.604 35.5304 29.795C35.5304 29.9804 35.4619 30.1412 35.3251 30.2775C35.1883 30.4142 35.0254 30.4825 34.8367 30.4825ZM31.4156 31.0081C31.297 31.0081 31.1974 30.9661 31.1167 30.882C31.036 30.7979 30.9956 30.6966 30.9956 30.5782C30.9956 30.4597 31.0365 30.3602 31.1183 30.2796C31.1997 30.199 31.3005 30.1587 31.4209 30.1587C31.5363 30.1587 31.636 30.1996 31.7198 30.2812C31.804 30.3625 31.8461 30.4633 31.8461 30.5834C31.8461 30.6987 31.804 30.7982 31.7198 30.882C31.6356 30.9661 31.5342 31.0081 31.4156 31.0081Z" fill="#1279E1"/>
</svg>
