<svg width="49" height="48" viewBox="0 0 49 48" fill="none" xmlns="http://www.w3.org/2000/svg">
<rect width="48" height="48" rx="6" fill="white"/>
<rect x="0.5" y="0.5" width="47" height="47" rx="5.5" stroke="#0059B3" stroke-opacity="0.16"/>
<path d="M18.08 27.6611C17.38 27.8566 16.9582 28.4059 16.9582 28.9238C16.9582 29.4417 17.38 29.9909 18.08 30.1857V27.6611ZM19.2018 31.4813V34.0052C19.9018 33.8104 20.3235 33.2611 20.3235 32.7432C20.3235 32.2253 19.9018 31.6761 19.2018 31.4813Z" fill="#1279E1"/>
<path fill-rule="evenodd" clip-rule="evenodd" d="M26.1195 30.8335C26.1195 35.0525 22.7713 38.4724 18.6409 38.4724C14.5104 38.4724 11.1622 35.0525 11.1622 30.8335C11.1622 26.6145 14.5104 23.1946 18.6409 23.1946C22.7713 23.1946 26.1195 26.6145 26.1195 30.8335ZM18.6409 25.6772C18.7896 25.6772 18.9323 25.7376 19.0375 25.845C19.1427 25.9525 19.2018 26.0982 19.2018 26.2502V26.4923C20.4208 26.7154 21.4454 27.6511 21.4454 28.9238C21.4454 29.0757 21.3863 29.2214 21.2811 29.3289C21.1759 29.4363 21.0332 29.4967 20.8845 29.4967C20.7357 29.4967 20.593 29.4363 20.4878 29.3289C20.3827 29.2214 20.3236 29.0757 20.3236 28.9238C20.3236 28.4059 19.9018 27.8566 19.2018 27.6611V30.3118C20.4208 30.5348 21.4454 31.4706 21.4454 32.7432C21.4454 34.0159 20.4208 34.9516 19.2018 35.1747V35.4168C19.2018 35.5688 19.1427 35.7145 19.0375 35.8219C18.9323 35.9294 18.7896 35.9897 18.6409 35.9897C18.4921 35.9897 18.3494 35.9294 18.2442 35.8219C18.1391 35.7145 18.08 35.5688 18.08 35.4168V35.1747C16.8609 34.9516 15.8364 34.0159 15.8364 32.7432C15.8364 32.5913 15.8955 32.4455 16.0007 32.3381C16.1058 32.2307 16.2485 32.1703 16.3973 32.1703C16.546 32.1703 16.6887 32.2307 16.7939 32.3381C16.8991 32.4455 16.9582 32.5913 16.9582 32.7432C16.9582 33.2611 17.38 33.8104 18.08 34.0052V31.3552C16.8609 31.1322 15.8364 30.1964 15.8364 28.9238C15.8364 27.6511 16.8609 26.7154 18.08 26.4923V26.2502C18.08 26.0982 18.1391 25.9525 18.2442 25.845C18.3494 25.7376 18.4921 25.6772 18.6409 25.6772Z" fill="#1279E1"/>
<path d="M25.6667 11.5V19C25.6667 19.663 25.93 20.2989 26.3989 20.7678C26.8677 21.2366 27.5036 21.5 28.1667 21.5H35.6667V34C35.6667 34.663 35.4033 35.2989 34.9344 35.7678C34.4656 36.2366 33.8297 36.5 33.1667 36.5H24.6542C25.9479 35.1532 26.7383 33.4019 26.8922 31.5407C27.0461 29.6796 26.5541 27.8222 25.4991 26.2812C24.4441 24.7402 22.8905 23.6097 21.0997 23.08C19.3089 22.5502 17.3902 22.6535 15.6667 23.3725V14C15.6667 13.337 15.93 12.7011 16.3989 12.2322C16.8677 11.7634 17.5036 11.5 18.1667 11.5H25.6667ZM27.5417 12.125V19C27.5417 19.1658 27.6075 19.3247 27.7247 19.4419C27.8419 19.5592 28.0009 19.625 28.1667 19.625H35.0417L27.5417 12.125Z" fill="#1279E1"/>
</svg>
