<svg width="48" height="48" viewBox="0 0 48 48" fill="none" xmlns="http://www.w3.org/2000/svg">
<rect width="48" height="48" rx="6" fill="white"/>
<rect x="0.5" y="0.5" width="47" height="47" rx="5.5" stroke="#0059B3" stroke-opacity="0.16"/>
<path d="M16.5 36.5C15.8125 36.5 15.2242 36.2554 14.735 35.7663C14.2458 35.2771 14.0008 34.6883 14 34V14C14 13.3125 14.245 12.7242 14.735 12.235C15.225 11.7458 15.8133 11.5008 16.5 11.5H26.5L34 19V22.75C33.5208 22.8542 33.0729 23.0208 32.6562 23.25C32.2396 23.4792 31.8542 23.7708 31.5 24.125L24 31.5938V36.5H16.5ZM26.5 36.5V32.6562L33.4063 25.7812C33.5938 25.5938 33.8021 25.4583 34.0313 25.375C34.2604 25.2917 34.4896 25.25 34.7188 25.25C34.9688 25.25 35.2083 25.2971 35.4375 25.3912C35.6667 25.4854 35.875 25.6258 36.0625 25.8125L37.2188 26.9688C37.3854 27.1562 37.5158 27.3646 37.61 27.5938C37.7042 27.8229 37.7508 28.0521 37.75 28.2812C37.75 28.5104 37.7083 28.745 37.625 28.985C37.5417 29.225 37.4063 29.4383 37.2188 29.625L30.3438 36.5H26.5ZM34.7188 29.5L35.875 28.2812L34.7188 27.125L33.5313 28.3125L34.7188 29.5ZM25.25 20.25H31.5L25.25 14V20.25Z" fill="#1279E1"/>
</svg>
