<svg width="48" height="48" viewBox="0 0 48 48" fill="none" xmlns="http://www.w3.org/2000/svg">
<rect width="48" height="48" rx="6" fill="white"/>
<rect x="0.5" y="0.5" width="47" height="47" rx="5.5" stroke="#0059B3" stroke-opacity="0.16"/>
<path d="M36.5 24C36.5 17.1 30.9 11.5 24 11.5C17.1 11.5 11.5 17.1 11.5 24C11.5 30.05 15.8 35.0875 21.5 36.25V27.75H19V24H21.5V20.875C21.5 18.4625 23.4625 16.5 25.875 16.5H29V20.25H26.5C25.8125 20.25 25.25 20.8125 25.25 21.5V24H29V27.75H25.25V36.4375C31.5625 35.8125 36.5 30.4875 36.5 24Z" fill="#1279E1"/>
</svg>
