<svg width="48" height="48" viewBox="0 0 48 48" fill="none" xmlns="http://www.w3.org/2000/svg">
<rect width="48" height="48" rx="6" fill="white"/>
<rect x="0.5" y="0.5" width="47" height="47" rx="5.5" stroke="#0059B3" stroke-opacity="0.16"/>
<mask id="path-3-inside-1_3468_714" fill="white">
<path d="M22.75 10.25C22.75 10.0028 22.8233 9.7611 22.9607 9.55554C23.098 9.34998 23.2932 9.18976 23.5216 9.09515C23.7501 9.00054 24.0014 8.97579 24.2439 9.02402C24.4863 9.07225 24.7091 9.1913 24.8839 9.36612C25.0587 9.54093 25.1777 9.76366 25.226 10.0061C25.2742 10.2486 25.2495 10.4999 25.1549 10.7284C25.0602 10.9568 24.9 11.152 24.6945 11.2893C24.4889 11.4267 24.2472 11.5 24 11.5C23.6685 11.5 23.3505 11.3683 23.1161 11.1339C22.8817 10.8995 22.75 10.5815 22.75 10.25ZM12.75 17.75C12.9972 17.75 13.2389 17.6767 13.4445 17.5393C13.65 17.402 13.8102 17.2068 13.9049 16.9784C13.9995 16.7499 14.0242 16.4986 13.976 16.2561C13.9278 16.0137 13.8087 15.7909 13.6339 15.6161C13.4591 15.4413 13.2363 15.3223 12.9939 15.274C12.7514 15.2258 12.5001 15.2505 12.2716 15.3452C12.0432 15.4398 11.848 15.6 11.7107 15.8055C11.5733 16.0111 11.5 16.2528 11.5 16.5C11.5 16.8315 11.6317 17.1495 11.8661 17.3839C12.1005 17.6183 12.4185 17.75 12.75 17.75ZM17.75 12.75C17.9972 12.75 18.2389 12.6767 18.4445 12.5393C18.65 12.402 18.8102 12.2068 18.9049 11.9784C18.9995 11.7499 19.0242 11.4986 18.976 11.2561C18.9278 11.0137 18.8087 10.7909 18.6339 10.6161C18.4591 10.4413 18.2363 10.3223 17.9939 10.274C17.7514 10.2258 17.5001 10.2505 17.2716 10.3452C17.0432 10.4398 16.848 10.6 16.7107 10.8055C16.5733 11.0111 16.5 11.2528 16.5 11.5C16.5 11.8315 16.6317 12.1495 16.8661 12.3839C17.1005 12.6183 17.4185 12.75 17.75 12.75ZM30.25 12.75C30.4972 12.75 30.7389 12.6767 30.9445 12.5393C31.15 12.402 31.3102 12.2068 31.4049 11.9784C31.4995 11.7499 31.5242 11.4986 31.476 11.2561C31.4277 11.0137 31.3087 10.7909 31.1339 10.6161C30.9591 10.4413 30.7363 10.3223 30.4939 10.274C30.2514 10.2258 30.0001 10.2505 29.7716 10.3452C29.5432 10.4398 29.348 10.6 29.2107 10.8055C29.0733 11.0111 29 11.2528 29 11.5C29 11.8315 29.1317 12.1495 29.3661 12.3839C29.6005 12.6183 29.9185 12.75 30.25 12.75ZM35.25 17.75C35.4972 17.75 35.7389 17.6767 35.9445 17.5393C36.15 17.402 36.3102 17.2068 36.4049 16.9784C36.4995 16.7499 36.5242 16.4986 36.476 16.2561C36.4277 16.0137 36.3087 15.7909 36.1339 15.6161C35.9591 15.4413 35.7363 15.3223 35.4939 15.274C35.2514 15.2258 35.0001 15.2505 34.7716 15.3452C34.5432 15.4398 34.348 15.6 34.2107 15.8055C34.0733 16.0111 34 16.2528 34 16.5C34 16.8315 34.1317 17.1495 34.3661 17.3839C34.6005 17.6183 34.9185 17.75 35.25 17.75ZM22.3625 33.8537C22.008 32.9693 21.7604 32.0457 21.625 31.1025C19.9059 30.5376 18.4512 29.3664 17.5323 27.8076C16.6134 26.2488 16.2931 24.4089 16.6313 22.6312L21 27V28C21.0023 28.4817 21.1801 28.9461 21.5 29.3063V24H20V22H22C22.265 21.9993 22.519 21.8938 22.7064 21.7064C22.8938 21.519 22.9993 21.265 23 21V19H25C25.5073 18.9978 25.9948 18.8029 26.3638 18.4548C26.7329 18.1067 26.9558 17.6313 26.9875 17.125C28.1478 17.6387 29.1595 18.4372 29.9287 19.4463L31.5 18.7913L32.85 19.3538C32.06 17.8454 30.8979 16.5639 29.4737 15.6307C28.0496 14.6975 26.4107 14.1435 24.7125 14.0212C23.0142 13.899 21.3128 14.2125 19.7697 14.9322C18.2266 15.6519 16.8929 16.7537 15.8951 18.1334C14.8972 19.513 14.2683 21.1246 14.068 22.8154C13.8676 24.5063 14.1025 26.2203 14.7503 27.7949C15.3981 29.3695 16.4374 30.7525 17.7696 31.8129C19.1017 32.8732 20.6827 33.5757 22.3625 33.8537ZM17.75 35.25C17.5028 35.25 17.2611 35.3233 17.0555 35.4607C16.85 35.598 16.6898 35.7932 16.5952 36.0216C16.5005 36.2501 16.4758 36.5014 16.524 36.7439C16.5723 36.9863 16.6913 37.2091 16.8661 37.3839C17.0409 37.5587 17.2637 37.6777 17.5061 37.726C17.7486 37.7742 17.9999 37.7495 18.2284 37.6549C18.4568 37.5602 18.652 37.4 18.7893 37.1945C18.9267 36.9889 19 36.7472 19 36.5C19 36.1685 18.8683 35.8505 18.6339 35.6161C18.3995 35.3817 18.0815 35.25 17.75 35.25ZM24 36.5C23.7528 36.5 23.5111 36.5733 23.3055 36.7107C23.1 36.848 22.9398 37.0432 22.8451 37.2716C22.7505 37.5001 22.7258 37.7514 22.774 37.9939C22.8222 38.2363 22.9413 38.4591 23.1161 38.6339C23.2909 38.8087 23.5137 38.9277 23.7561 38.976C23.9986 39.0242 24.2499 38.9995 24.4784 38.9049C24.7068 38.8102 24.902 38.65 25.0393 38.4445C25.1767 38.2389 25.25 37.9972 25.25 37.75C25.25 37.4185 25.1183 37.1005 24.8839 36.8661C24.6495 36.6317 24.3315 36.5 24 36.5ZM12.75 30.25C12.5028 30.25 12.2611 30.3233 12.0555 30.4607C11.85 30.598 11.6898 30.7932 11.5952 31.0216C11.5005 31.2501 11.4758 31.5014 11.524 31.7439C11.5723 31.9863 11.6913 32.2091 11.8661 32.3839C12.0409 32.5587 12.2637 32.6777 12.5061 32.726C12.7486 32.7742 12.9999 32.7495 13.2284 32.6549C13.4568 32.5602 13.652 32.4 13.7893 32.1945C13.9267 31.9889 14 31.7472 14 31.5C14 31.1685 13.8683 30.8505 13.6339 30.6161C13.3995 30.3817 13.0815 30.25 12.75 30.25ZM10.25 22.75C10.0028 22.75 9.7611 22.8233 9.55554 22.9607C9.34998 23.098 9.18976 23.2932 9.09515 23.5216C9.00054 23.7501 8.97579 24.0014 9.02402 24.2439C9.07225 24.4863 9.1913 24.7091 9.36612 24.8839C9.54093 25.0587 9.76366 25.1777 10.0061 25.226C10.2486 25.2742 10.4999 25.2495 10.7284 25.1549C10.9568 25.0602 11.152 24.9 11.2893 24.6945C11.4267 24.4889 11.5 24.2472 11.5 24C11.5 23.6685 11.3683 23.3505 11.1339 23.1161C10.8995 22.8817 10.5815 22.75 10.25 22.75ZM39 24.625V29.4538C38.9359 31.638 38.1727 33.7441 36.8227 35.4625C35.4727 37.1808 33.607 38.4207 31.5 39C29.3963 38.4321 27.5312 37.2022 26.1805 35.4922C24.8298 33.7823 24.0653 31.6831 24 29.505V24.625L31.5 21.5L39 24.625Z"/>
</mask>
<path d="M22.75 10.25C22.75 10.0028 22.8233 9.7611 22.9607 9.55554C23.098 9.34998 23.2932 9.18976 23.5216 9.09515C23.7501 9.00054 24.0014 8.97579 24.2439 9.02402C24.4863 9.07225 24.7091 9.1913 24.8839 9.36612C25.0587 9.54093 25.1777 9.76366 25.226 10.0061C25.2742 10.2486 25.2495 10.4999 25.1549 10.7284C25.0602 10.9568 24.9 11.152 24.6945 11.2893C24.4889 11.4267 24.2472 11.5 24 11.5C23.6685 11.5 23.3505 11.3683 23.1161 11.1339C22.8817 10.8995 22.75 10.5815 22.75 10.25ZM12.75 17.75C12.9972 17.75 13.2389 17.6767 13.4445 17.5393C13.65 17.402 13.8102 17.2068 13.9049 16.9784C13.9995 16.7499 14.0242 16.4986 13.976 16.2561C13.9278 16.0137 13.8087 15.7909 13.6339 15.6161C13.4591 15.4413 13.2363 15.3223 12.9939 15.274C12.7514 15.2258 12.5001 15.2505 12.2716 15.3452C12.0432 15.4398 11.848 15.6 11.7107 15.8055C11.5733 16.0111 11.5 16.2528 11.5 16.5C11.5 16.8315 11.6317 17.1495 11.8661 17.3839C12.1005 17.6183 12.4185 17.75 12.75 17.75ZM17.75 12.75C17.9972 12.75 18.2389 12.6767 18.4445 12.5393C18.65 12.402 18.8102 12.2068 18.9049 11.9784C18.9995 11.7499 19.0242 11.4986 18.976 11.2561C18.9278 11.0137 18.8087 10.7909 18.6339 10.6161C18.4591 10.4413 18.2363 10.3223 17.9939 10.274C17.7514 10.2258 17.5001 10.2505 17.2716 10.3452C17.0432 10.4398 16.848 10.6 16.7107 10.8055C16.5733 11.0111 16.5 11.2528 16.5 11.5C16.5 11.8315 16.6317 12.1495 16.8661 12.3839C17.1005 12.6183 17.4185 12.75 17.75 12.75ZM30.25 12.75C30.4972 12.75 30.7389 12.6767 30.9445 12.5393C31.15 12.402 31.3102 12.2068 31.4049 11.9784C31.4995 11.7499 31.5242 11.4986 31.476 11.2561C31.4277 11.0137 31.3087 10.7909 31.1339 10.6161C30.9591 10.4413 30.7363 10.3223 30.4939 10.274C30.2514 10.2258 30.0001 10.2505 29.7716 10.3452C29.5432 10.4398 29.348 10.6 29.2107 10.8055C29.0733 11.0111 29 11.2528 29 11.5C29 11.8315 29.1317 12.1495 29.3661 12.3839C29.6005 12.6183 29.9185 12.75 30.25 12.75ZM35.25 17.75C35.4972 17.75 35.7389 17.6767 35.9445 17.5393C36.15 17.402 36.3102 17.2068 36.4049 16.9784C36.4995 16.7499 36.5242 16.4986 36.476 16.2561C36.4277 16.0137 36.3087 15.7909 36.1339 15.6161C35.9591 15.4413 35.7363 15.3223 35.4939 15.274C35.2514 15.2258 35.0001 15.2505 34.7716 15.3452C34.5432 15.4398 34.348 15.6 34.2107 15.8055C34.0733 16.0111 34 16.2528 34 16.5C34 16.8315 34.1317 17.1495 34.3661 17.3839C34.6005 17.6183 34.9185 17.75 35.25 17.75ZM22.3625 33.8537C22.008 32.9693 21.7604 32.0457 21.625 31.1025C19.9059 30.5376 18.4512 29.3664 17.5323 27.8076C16.6134 26.2488 16.2931 24.4089 16.6313 22.6312L21 27V28C21.0023 28.4817 21.1801 28.9461 21.5 29.3063V24H20V22H22C22.265 21.9993 22.519 21.8938 22.7064 21.7064C22.8938 21.519 22.9993 21.265 23 21V19H25C25.5073 18.9978 25.9948 18.8029 26.3638 18.4548C26.7329 18.1067 26.9558 17.6313 26.9875 17.125C28.1478 17.6387 29.1595 18.4372 29.9287 19.4463L31.5 18.7913L32.85 19.3538C32.06 17.8454 30.8979 16.5639 29.4737 15.6307C28.0496 14.6975 26.4107 14.1435 24.7125 14.0212C23.0142 13.899 21.3128 14.2125 19.7697 14.9322C18.2266 15.6519 16.8929 16.7537 15.8951 18.1334C14.8972 19.513 14.2683 21.1246 14.068 22.8154C13.8676 24.5063 14.1025 26.2203 14.7503 27.7949C15.3981 29.3695 16.4374 30.7525 17.7696 31.8129C19.1017 32.8732 20.6827 33.5757 22.3625 33.8537ZM17.75 35.25C17.5028 35.25 17.2611 35.3233 17.0555 35.4607C16.85 35.598 16.6898 35.7932 16.5952 36.0216C16.5005 36.2501 16.4758 36.5014 16.524 36.7439C16.5723 36.9863 16.6913 37.2091 16.8661 37.3839C17.0409 37.5587 17.2637 37.6777 17.5061 37.726C17.7486 37.7742 17.9999 37.7495 18.2284 37.6549C18.4568 37.5602 18.652 37.4 18.7893 37.1945C18.9267 36.9889 19 36.7472 19 36.5C19 36.1685 18.8683 35.8505 18.6339 35.6161C18.3995 35.3817 18.0815 35.25 17.75 35.25ZM24 36.5C23.7528 36.5 23.5111 36.5733 23.3055 36.7107C23.1 36.848 22.9398 37.0432 22.8451 37.2716C22.7505 37.5001 22.7258 37.7514 22.774 37.9939C22.8222 38.2363 22.9413 38.4591 23.1161 38.6339C23.2909 38.8087 23.5137 38.9277 23.7561 38.976C23.9986 39.0242 24.2499 38.9995 24.4784 38.9049C24.7068 38.8102 24.902 38.65 25.0393 38.4445C25.1767 38.2389 25.25 37.9972 25.25 37.75C25.25 37.4185 25.1183 37.1005 24.8839 36.8661C24.6495 36.6317 24.3315 36.5 24 36.5ZM12.75 30.25C12.5028 30.25 12.2611 30.3233 12.0555 30.4607C11.85 30.598 11.6898 30.7932 11.5952 31.0216C11.5005 31.2501 11.4758 31.5014 11.524 31.7439C11.5723 31.9863 11.6913 32.2091 11.8661 32.3839C12.0409 32.5587 12.2637 32.6777 12.5061 32.726C12.7486 32.7742 12.9999 32.7495 13.2284 32.6549C13.4568 32.5602 13.652 32.4 13.7893 32.1945C13.9267 31.9889 14 31.7472 14 31.5C14 31.1685 13.8683 30.8505 13.6339 30.6161C13.3995 30.3817 13.0815 30.25 12.75 30.25ZM10.25 22.75C10.0028 22.75 9.7611 22.8233 9.55554 22.9607C9.34998 23.098 9.18976 23.2932 9.09515 23.5216C9.00054 23.7501 8.97579 24.0014 9.02402 24.2439C9.07225 24.4863 9.1913 24.7091 9.36612 24.8839C9.54093 25.0587 9.76366 25.1777 10.0061 25.226C10.2486 25.2742 10.4999 25.2495 10.7284 25.1549C10.9568 25.0602 11.152 24.9 11.2893 24.6945C11.4267 24.4889 11.5 24.2472 11.5 24C11.5 23.6685 11.3683 23.3505 11.1339 23.1161C10.8995 22.8817 10.5815 22.75 10.25 22.75ZM39 24.625V29.4538C38.9359 31.638 38.1727 33.7441 36.8227 35.4625C35.4727 37.1808 33.607 38.4207 31.5 39C29.3963 38.4321 27.5312 37.2022 26.1805 35.4922C24.8298 33.7823 24.0653 31.6831 24 29.505V24.625L31.5 21.5L39 24.625Z" fill="#1279E1" stroke="#1279E1" stroke-width="1.5" mask="url(#path-3-inside-1_3468_714)"/>
</svg>
