<svg width="48" height="48" viewBox="0 0 48 48" fill="none" xmlns="http://www.w3.org/2000/svg">
<rect width="48" height="48" rx="6" fill="white"/>
<rect x="0.5" y="0.5" width="47" height="47" rx="5.5" stroke="#0059B3" stroke-opacity="0.16"/>
<path d="M24 36.5C22.2708 36.5 20.6458 36.1717 19.125 35.515C17.6042 34.8583 16.2813 33.9679 15.1563 32.8438C14.0313 31.7188 13.1408 30.3958 12.485 28.875C11.8292 27.3542 11.5008 25.7292 11.5 24C11.5 22.4375 11.8021 20.9063 12.4062 19.4063C13.0104 17.9063 13.8542 16.5675 14.9375 15.39C16.0208 14.2133 17.3229 13.2654 18.8438 12.5463C20.3646 11.8271 22.0313 11.4679 23.8438 11.4688C24.2813 11.4688 24.7292 11.4896 25.1875 11.5313C25.6458 11.5729 26.1146 11.6458 26.5938 11.75C26.4063 12.6875 26.4688 13.5729 26.7813 14.4063C27.0938 15.2396 27.5625 15.9321 28.1875 16.4838C28.8125 17.0363 29.5575 17.4167 30.4225 17.625C31.2875 17.8333 32.1779 17.7813 33.0938 17.4688C32.5521 18.6979 32.6304 19.875 33.3288 21C34.0271 22.125 35.0633 22.7083 36.4375 22.75C36.4583 22.9792 36.4742 23.1925 36.485 23.39C36.4958 23.5875 36.5008 23.8013 36.5 24.0313C36.5 25.7396 36.1717 27.3488 35.515 28.8588C34.8583 30.3688 33.9679 31.6917 32.8438 32.8275C31.7188 33.9633 30.3958 34.8592 28.875 35.515C27.3542 36.1708 25.7292 36.4992 24 36.5ZM22.125 21.5C22.6458 21.5 23.0888 21.3179 23.4538 20.9538C23.8188 20.5896 24.0008 20.1467 24 19.625C24 19.1042 23.8179 18.6617 23.4538 18.2975C23.0896 17.9333 22.6467 17.7508 22.125 17.75C21.6042 17.75 21.1617 17.9325 20.7975 18.2975C20.4333 18.6625 20.2508 19.105 20.25 19.625C20.25 20.1458 20.4325 20.5888 20.7975 20.9538C21.1625 21.3188 21.605 21.5008 22.125 21.5ZM19.625 27.75C20.1458 27.75 20.5888 27.5679 20.9538 27.2038C21.3188 26.8396 21.5008 26.3967 21.5 25.875C21.5 25.3542 21.3179 24.9117 20.9538 24.5475C20.5896 24.1833 20.1467 24.0008 19.625 24C19.1042 24 18.6617 24.1825 18.2975 24.5475C17.9333 24.9125 17.7508 25.355 17.75 25.875C17.75 26.3958 17.9325 26.8388 18.2975 27.2038C18.6625 27.5688 19.105 27.7508 19.625 27.75ZM27.75 29C28.1042 29 28.4013 28.88 28.6413 28.64C28.8813 28.4 29.0008 28.1033 29 27.75C29 27.3958 28.88 27.0992 28.64 26.86C28.4 26.6208 28.1033 26.5008 27.75 26.5C27.3958 26.5 27.0992 26.62 26.86 26.86C26.6208 27.1 26.5008 27.3967 26.5 27.75C26.5 28.1042 26.62 28.4013 26.86 28.6413C27.1 28.8813 27.3967 29.0008 27.75 29Z" fill="#1279E1"/>
</svg>
