<svg width="48" height="48" viewBox="0 0 48 48" fill="none" xmlns="http://www.w3.org/2000/svg">
<rect width="48" height="48" rx="6" fill="white"/>
<rect x="0.5" y="0.5" width="47" height="47" rx="5.5" stroke="#0059B3" stroke-opacity="0.16"/>
<path d="M24 11.5V19C23.9998 19.3284 24.0644 19.6536 24.1899 19.9571C24.3155 20.2606 24.4996 20.5363 24.7318 20.7686C24.964 21.0009 25.2396 21.1851 25.543 21.3108C25.8464 21.4365 26.1716 21.5013 26.5 21.5013H34V34.0025C34 34.6655 33.7366 35.3014 33.2678 35.7703C32.7989 36.2391 32.163 36.5025 31.5 36.5025H20.25V31.9138C21.021 30.9611 21.4599 29.7828 21.4998 28.5579C21.5396 27.333 21.1784 26.1286 20.4709 25.1278C19.7635 24.1271 18.7486 23.3848 17.5805 23.0138C16.4125 22.6428 15.1552 22.6634 14 23.0725V14C14 13.337 14.2634 12.7011 14.7322 12.2322C15.2011 11.7634 15.837 11.5 16.5 11.5H24ZM25.875 12.125V19C25.875 19.1658 25.9408 19.3247 26.0581 19.4419C26.1753 19.5592 26.3342 19.625 26.5 19.625H33.375L25.875 12.125ZM20.25 28.3775C20.25 28.952 20.1368 29.5209 19.917 30.0517C19.6971 30.5825 19.3748 31.0648 18.9686 31.4711C18.5623 31.8773 18.08 32.1996 17.5492 32.4195C17.0184 32.6393 16.4495 32.7525 15.875 32.7525C15.3005 32.7525 14.7316 32.6393 14.2008 32.4195C13.67 32.1996 13.1877 31.8773 12.7814 31.4711C12.3752 31.0648 12.0529 30.5825 11.833 30.0517C11.6132 29.5209 11.5 28.952 11.5 28.3775C11.5 27.2172 11.9609 26.1044 12.7814 25.2839C13.6019 24.4634 14.7147 24.0025 15.875 24.0025C17.0353 24.0025 18.1481 24.4634 18.9686 25.2839C19.7891 26.1044 20.25 27.2172 20.25 28.3775ZM12.75 33.055V36.86C12.7498 37.0356 12.8017 37.2074 12.8991 37.3535C12.9965 37.4996 13.1351 37.6135 13.2973 37.6808C13.4595 37.7482 13.638 37.7658 13.8103 37.7317C13.9826 37.6975 14.1408 37.6129 14.265 37.4888L15.875 35.8788L17.485 37.4888C17.6092 37.6129 17.7674 37.6975 17.9397 37.7317C18.112 37.7658 18.2905 37.7482 18.4527 37.6808C18.6149 37.6135 18.7535 37.4996 18.8509 37.3535C18.9483 37.2074 19.0002 37.0356 19 36.86V33.055C18.0756 33.6743 16.9877 34.0042 15.875 34.0025C14.7623 34.0044 13.6743 33.6746 12.75 33.055Z" fill="#1279E1"/>
</svg>
