<svg width="48" height="48" viewBox="0 0 48 48" fill="none" xmlns="http://www.w3.org/2000/svg">
<rect width="48" height="48" rx="6" fill="white"/>
<rect x="0.5" y="0.5" width="47" height="47" rx="5.5" stroke="#0059B3" stroke-opacity="0.16"/>
<circle cx="24" cy="24" r="10" fill="#1279E1"/>
<path fill-rule="evenodd" clip-rule="evenodd" d="M24.8706 17.2247C25.8629 17.6214 26.3998 18.2425 26.6304 19.2131C26.7309 19.6268 26.7556 19.6338 26.4683 19.6293C26.396 19.628 25.7316 19.6268 25.6592 19.6268C25.3093 19.6268 25.3853 19.7095 25.1463 19.048C24.7086 17.9096 23.2207 17.9479 22.5939 18.5027C22.1292 18.9139 22.0866 19.611 22.6037 20.0521C23.2121 20.5709 23.8983 21.0031 24.5604 21.4591C25.1872 21.8908 25.856 22.2681 26.454 22.7343C27.5951 23.6234 27.5164 25.6396 26.1724 26.3156C26.0326 26.3813 25.9307 26.4407 25.6722 26.5662C25.8333 26.7414 26.0169 26.9176 26.153 27.0554C27.2543 28.1716 26.9008 30.0434 25.4481 30.6546C24.295 31.1398 23.1284 31.1253 22.0119 30.5381C21.2771 30.1517 20.8918 29.4926 20.7246 28.7042C20.7105 28.6371 20.7057 28.5098 20.7279 28.5025C21.0313 28.4034 21.3456 28.3325 21.6498 28.2504C21.8347 28.2005 21.8766 28.4515 21.9486 28.585C22.127 28.9161 22.1965 29.0476 22.5275 29.3679C23.2008 30.0196 24.5891 29.9534 25.1065 29.4751C25.5983 29.0203 25.6092 28.239 25.033 27.7796C24.3498 27.2345 23.5967 26.7747 22.8824 26.2663C22.2171 25.793 21.5174 25.3537 20.9141 24.8117C19.8414 23.8484 20.0837 21.9958 21.5285 21.2701C21.6013 21.2337 21.6013 21.2337 21.7837 21.1296C21.6703 20.9777 21.5559 20.8228 21.4541 20.6913C20.4449 19.3864 20.9985 17.7421 22.5827 17.1971C23.918 16.738 24.8706 17.2247 24.8706 17.2247ZM26.0533 24.6772C25.9828 24.1449 25.6322 23.7241 25.177 23.4079C24.3619 22.8419 23.5193 22.3141 22.6796 21.7838C22.5903 21.7274 22.4117 21.7084 22.3275 21.7582C21.1637 22.4484 21.1035 23.4777 22.0414 24.1704C22.9181 24.8177 23.8645 25.3744 24.7867 25.961C24.8695 26.0136 25.0102 26.0292 25.106 26.0018C25.5699 25.8683 26.0572 25.1973 26.0533 24.6772Z" fill="white"/>
</svg>
