<svg width="48" height="48" viewBox="0 0 48 48" fill="none" xmlns="http://www.w3.org/2000/svg">
<rect width="48" height="48" rx="6" fill="white"/>
<rect x="0.5" y="0.5" width="47" height="47" rx="5.5" stroke="#0059B3" stroke-opacity="0.16"/>
<path d="M39 9V39H9V9H39ZM24.7413 38.0725L24.7275 38.075L24.6388 38.1187L24.6138 38.1237L24.5963 38.1187L24.5075 38.075C24.495 38.07 24.4838 38.0737 24.4775 38.0812L24.4725 38.0938L24.4513 38.6287L24.4575 38.6537L24.47 38.67L24.6 38.7625L24.6187 38.7675L24.6337 38.7625L24.7638 38.67L24.7788 38.65L24.7837 38.6287L24.7625 38.095C24.76 38.0825 24.7513 38.0737 24.7413 38.0725ZM25.0725 37.9313L25.0562 37.9338L24.825 38.05L24.8125 38.0625L24.8088 38.0763L24.8313 38.6138L24.8375 38.6287L24.8475 38.6375L25.0987 38.7537C25.1138 38.7587 25.1275 38.7537 25.135 38.7437L25.14 38.7262L25.0975 37.9587C25.0938 37.9438 25.085 37.9338 25.0725 37.9313ZM24.1787 37.9338C24.1731 37.9312 24.1667 37.9305 24.1606 37.9319C24.1545 37.9332 24.1491 37.9365 24.145 37.9412L24.1375 37.9587L24.095 38.7262C24.095 38.7413 24.1038 38.7513 24.1163 38.7563L24.135 38.7537L24.3862 38.6375L24.3988 38.6275L24.4037 38.6138L24.425 38.0763L24.4212 38.0613L24.4087 38.0487L24.1787 37.9338Z" fill="white"/>
<path d="M29 12.75C29.9565 12.7499 30.8769 13.1154 31.5728 13.7716C32.2688 14.4278 32.6876 15.3251 32.7438 16.28L32.75 16.5V29H33.6875C34.4963 29 35.1625 29.615 35.2425 30.4025L35.25 30.5625V32.75C35.2501 33.7065 34.8846 34.6269 34.2284 35.3228C33.5722 36.0188 32.6749 36.4376 31.72 36.4938L31.5 36.5H19C18.0435 36.5001 17.1231 36.1346 16.4272 35.4784C15.7312 34.8222 15.3124 33.9249 15.2563 32.97L15.25 32.75V20.25H13.0625C12.6757 20.2502 12.3025 20.1069 12.0153 19.8478C11.728 19.5887 11.5471 19.2323 11.5075 18.8475L11.5 18.6875V16.5C11.4999 15.5435 11.8654 14.6231 12.5216 13.9272C13.1778 13.2312 14.0751 12.8124 15.03 12.7563L15.25 12.75H29ZM32.75 31.5H21.5V32.75C21.5 33.1875 21.425 33.6087 21.2875 34H31.5C31.8315 34 32.1495 33.8683 32.3839 33.6339C32.6183 33.3995 32.75 33.0815 32.75 32.75V31.5ZM24 24H21.5C21.1814 24.0004 20.875 24.1223 20.6433 24.3411C20.4116 24.5598 20.2722 24.8587 20.2535 25.1767C20.2349 25.4948 20.3383 25.808 20.5428 26.0523C20.7473 26.2966 21.0374 26.4536 21.3538 26.4913L21.5 26.5H24C24.3186 26.4996 24.625 26.3777 24.8567 26.1589C25.0884 25.9402 25.2278 25.6413 25.2465 25.3233C25.2651 25.0052 25.1617 24.692 24.9572 24.4477C24.7527 24.2034 24.4626 24.0464 24.1462 24.0087L24 24ZM26.5 19H21.5C21.1685 19 20.8505 19.1317 20.6161 19.3661C20.3817 19.6005 20.25 19.9185 20.25 20.25C20.25 20.5815 20.3817 20.8995 20.6161 21.1339C20.8505 21.3683 21.1685 21.5 21.5 21.5H26.5C26.8315 21.5 27.1495 21.3683 27.3839 21.1339C27.6183 20.8995 27.75 20.5815 27.75 20.25C27.75 19.9185 27.6183 19.6005 27.3839 19.3661C27.1495 19.1317 26.8315 19 26.5 19ZM15.25 15.25C14.9185 15.25 14.6005 15.3817 14.3661 15.6161C14.1317 15.8505 14 16.1685 14 16.5V17.75H15.25V15.25Z" fill="#1279E1"/>
</svg>
