<svg width="48" height="48" viewBox="0 0 48 48" fill="none" xmlns="http://www.w3.org/2000/svg">
<rect width="48" height="48" rx="6" fill="white"/>
<rect x="0.5" y="0.5" width="47" height="47" rx="5.5" stroke="#0059B3" stroke-opacity="0.16"/>
<path d="M17.4629 10.6216H30.8077C31.8694 10.6216 32.8877 11.0434 33.6385 11.7942C34.3893 12.545 34.8111 13.5633 34.8111 14.625V33.3077C34.8111 34.3695 34.3893 35.3878 33.6385 36.1386C32.8877 36.8894 31.8694 37.3111 30.8077 37.3111H17.4629C16.4011 37.3111 15.3828 36.8894 14.632 36.1386C13.8812 35.3878 13.4595 34.3695 13.4595 33.3077V14.625C13.4595 13.5633 13.8812 12.545 14.632 11.7942C15.3828 11.0434 16.4011 10.6216 17.4629 10.6216ZM18.7974 19.963C18.4434 19.963 18.104 20.1036 17.8537 20.3538C17.6035 20.6041 17.4629 20.9435 17.4629 21.2974C17.4629 21.6514 17.6035 21.9908 17.8537 22.241C18.104 22.4913 18.4434 22.6319 18.7974 22.6319H29.4732C29.8271 22.6319 30.1665 22.4913 30.4168 22.241C30.6671 21.9908 30.8077 21.6514 30.8077 21.2974C30.8077 20.9435 30.6671 20.6041 30.4168 20.3538C30.1665 20.1036 29.8271 19.963 29.4732 19.963H18.7974ZM18.7974 30.6388C18.4434 30.6388 18.104 30.7794 17.8537 31.0296C17.6035 31.2799 17.4629 31.6193 17.4629 31.9732C17.4629 32.3272 17.6035 32.6666 17.8537 32.9169C18.104 33.1671 18.4434 33.3077 18.7974 33.3077H25.4697C25.8237 33.3077 26.1631 33.1671 26.4134 32.9169C26.6636 32.6666 26.8042 32.3272 26.8042 31.9732C26.8042 31.6193 26.6636 31.2799 26.4134 31.0296C26.1631 30.7794 25.8237 30.6388 25.4697 30.6388H18.7974ZM18.7974 14.625C18.4434 14.625 18.104 14.7656 17.8537 15.0159C17.6035 15.2662 17.4629 15.6056 17.4629 15.9595C17.4629 16.3135 17.6035 16.6529 17.8537 16.9031C18.104 17.1534 18.4434 17.294 18.7974 17.294H29.4732C29.8271 17.294 30.1665 17.1534 30.4168 16.9031C30.6671 16.6529 30.8077 16.3135 30.8077 15.9595C30.8077 15.6056 30.6671 15.2662 30.4168 15.0159C30.1665 14.7656 29.8271 14.625 29.4732 14.625H18.7974ZM18.7974 25.3009C18.4434 25.3009 18.104 25.4415 17.8537 25.6917C17.6035 25.942 17.4629 26.2814 17.4629 26.6353C17.4629 26.9893 17.6035 27.3287 17.8537 27.579C18.104 27.8292 18.4434 27.9698 18.7974 27.9698H29.4732C29.8271 27.9698 30.1665 27.8292 30.4168 27.579C30.6671 27.3287 30.8077 26.9893 30.8077 26.6353C30.8077 26.2814 30.6671 25.942 30.4168 25.6917C30.1665 25.4415 29.8271 25.3009 29.4732 25.3009H18.7974Z" fill="#1279E1"/>
<rect x="17.0182" y="13.2906" width="14.2344" height="10.6758" fill="#1279E1"/>
<circle cx="24.3519" cy="18.2678" r="4.97724" fill="#F5F5F5"/>
<rect x="23.5445" y="14.7703" width="1.61424" height="6.86052" rx="0.807119" fill="#1279E1"/>
<rect x="21.1231" y="18.8059" width="1.61424" height="6.45695" rx="0.80712" transform="rotate(-90 21.1231 18.8059)" fill="#1279E1"/>
</svg>
