<svg width="48" height="48" viewBox="0 0 48 48" fill="none" xmlns="http://www.w3.org/2000/svg">
<rect width="48" height="48" rx="6" fill="white"/>
<rect x="0.5" y="0.5" width="47" height="47" rx="5.5" stroke="#0059B3" stroke-opacity="0.16"/>
<path d="M36.5 19.76V29.9375C36.5001 30.9752 36.1031 31.9735 35.3904 32.7278C34.6778 33.482 33.7035 33.935 32.6675 33.9938L32.4375 34H15.5625C14.5248 34.0001 13.5265 33.6031 12.7722 32.8904C12.018 32.1778 11.565 31.2035 11.5063 30.1675L11.5 29.9375V19.76L23.565 26.08C23.6992 26.1503 23.8485 26.187 24 26.187C24.1515 26.187 24.3008 26.1503 24.435 26.08L36.5 19.76ZM15.5625 14H32.4375C33.4445 13.9999 34.4156 14.3737 35.1625 15.0491C35.9095 15.7244 36.379 16.6531 36.48 17.655L24 24.1925L11.52 17.655C11.6169 16.6929 12.0538 15.7969 12.7522 15.1281C13.4506 14.4593 14.3646 14.0615 15.33 14.0063L15.5625 14Z" fill="#1279E1"/>
</svg>
