<svg width="48" height="48" viewBox="0 0 48 48" fill="none" xmlns="http://www.w3.org/2000/svg">
<rect width="48" height="48" rx="6" fill="white"/>
<rect x="0.5" y="0.5" width="47" height="47" rx="5.5" stroke="#0059B3" stroke-opacity="0.16"/>
<path d="M25.6667 10.6666V18.1666C25.6667 18.8297 25.9301 19.4656 26.3989 19.9344C26.8678 20.4032 27.5036 20.6666 28.1667 20.6666H35.6667V33.1666C35.6667 33.8297 35.4033 34.4655 34.9345 34.9344C34.4656 35.4032 33.8297 35.6666 33.1667 35.6666H24.6542C25.948 34.3199 26.7383 32.5685 26.8922 30.7073C27.0461 28.8462 26.5541 26.9888 25.4991 25.4478C24.4441 23.9069 22.8905 22.7764 21.0997 22.2466C19.3089 21.7168 17.3903 21.8201 15.6667 22.5391V13.1666C15.6667 12.5036 15.9301 11.8677 16.3989 11.3989C16.8678 10.93 17.5036 10.6666 18.1667 10.6666H25.6667ZM27.5417 11.2916V18.1666C27.5417 18.3324 27.6075 18.4914 27.7247 18.6086C27.842 18.7258 28.0009 18.7916 28.1667 18.7916H35.0417L27.5417 11.2916Z" fill="#1279E1"/>
<path d="M19 24.5555L13.4445 26.6389V30.868C13.4445 34.375 15.8125 37.6458 19 38.4444C22.1875 37.6458 24.5556 34.375 24.5556 30.868V26.6389L19 24.5555Z" fill="#1279E1"/>
</svg>
