<svg width="48" height="48" viewBox="0 0 48 48" fill="none" xmlns="http://www.w3.org/2000/svg">
<rect width="48" height="48" rx="6" fill="white"/>
<rect x="0.5" y="0.5" width="47" height="47" rx="5.5" stroke="#0059B3" stroke-opacity="0.16"/>
<path d="M16.095 14.3212C21.005 10.2975 28.2612 10.5775 32.845 15.1612C37.7262 20.0425 37.7262 27.9575 32.845 32.8387C27.9637 37.72 20.0487 37.72 15.1675 32.8387C13.6698 31.3427 12.5768 29.4905 11.9912 27.4562C11.4057 25.4219 11.3468 23.2721 11.82 21.2087L11.9162 20.8175L14.3337 21.455C13.7344 23.7328 13.9584 26.1491 14.9661 28.278C15.9738 30.4068 17.7007 32.1117 19.8423 33.0921C21.9839 34.0724 24.4029 34.2654 26.6728 33.6369C28.9428 33.0085 30.9181 31.599 32.2505 29.6568C33.583 27.7145 34.1872 25.3643 33.9565 23.0203C33.7259 20.6763 32.6753 18.4889 30.9898 16.8436C29.3044 15.1983 27.0923 14.2008 24.7433 14.0268C22.3944 13.8528 20.0595 14.5135 18.15 15.8925L17.875 16.1L19.1462 17.3712L13.4012 18.6962L14.7262 12.9512L16.095 14.3212ZM25.2562 16.5V19H28.3812V21.5H21.5062C21.3501 21.4997 21.1994 21.5579 21.084 21.6631C20.9686 21.7683 20.8968 21.913 20.8827 22.0685C20.8685 22.2241 20.9132 22.3792 21.0078 22.5035C21.1024 22.6278 21.2401 22.7122 21.3937 22.74L21.5062 22.75H26.5062C27.3351 22.75 28.1299 23.0792 28.716 23.6653C29.302 24.2513 29.6312 25.0462 29.6312 25.875C29.6312 26.7038 29.302 27.4986 28.716 28.0847C28.1299 28.6707 27.3351 29 26.5062 29H25.2562V31.5H22.7562V29H19.6312V26.5H26.5062C26.6624 26.5003 26.8131 26.4421 26.9285 26.3368C27.0439 26.2316 27.1157 26.087 27.1298 25.9315C27.144 25.7759 27.0993 25.6207 27.0047 25.4964C26.9101 25.3722 26.7724 25.2878 26.6187 25.26L26.5062 25.25H21.5062C20.6774 25.25 19.8826 24.9207 19.2965 24.3347C18.7105 23.7486 18.3812 22.9538 18.3812 22.125C18.3812 21.2962 18.7105 20.5013 19.2965 19.9153C19.8826 19.3292 20.6774 19 21.5062 19H22.7562V16.5H25.2562Z" fill="#1279E1"/>
</svg>
