<svg width="48" height="48" viewBox="0 0 48 48" fill="none" xmlns="http://www.w3.org/2000/svg">
<rect width="48" height="48" rx="6" fill="white"/>
<rect x="0.5" y="0.5" width="47" height="47" rx="5.5" stroke="#0059B3" stroke-opacity="0.16"/>
<path d="M25.4062 23.0625C25.2819 23.0625 25.1627 23.0131 25.0748 22.9252C24.9869 22.8373 24.9375 22.7181 24.9375 22.5938V11.8125H21.583C21.4736 11.6098 21.3461 11.4175 21.2021 11.2377C20.5266 10.3992 19.5229 9.9375 18.375 9.9375C16.1672 9.9375 14.625 11.6725 14.625 14.1562V22.5938C14.625 24.0586 15.8168 24.9375 16.9688 24.9375C17.2775 24.9409 17.5838 24.8826 17.8696 24.766C18.1555 24.6494 18.4152 24.4769 18.6335 24.2585C18.8519 24.0402 19.0244 23.7805 19.141 23.4946C19.2576 23.2088 19.3159 22.9025 19.3125 22.5938V13.6875H17.4375V22.5938C17.4395 22.6559 17.4288 22.7177 17.406 22.7755C17.3831 22.8333 17.3487 22.8858 17.3047 22.9297C17.2608 22.9737 17.2083 23.0081 17.1505 23.031C17.0927 23.0538 17.0309 23.0645 16.9688 23.0625C16.8381 23.0625 16.5 22.9781 16.5 22.5938V14.1562C16.5 13.023 16.9928 11.8125 18.375 11.8125C20.1146 11.8125 20.25 13.5791 20.25 14.1199V22.2498C20.25 23.2723 19.9295 24.1969 19.3471 24.8549C18.7559 25.5234 17.9338 25.875 16.9688 25.875C16.0037 25.875 15.1816 25.5234 14.5904 24.8549C14.008 24.1969 13.6875 23.2723 13.6875 22.2498V17.4375H11.8125V22.2498C11.8125 25.268 13.7572 27.5016 16.5 27.7301V36.4219C16.5 36.6084 16.5741 36.7872 16.7059 36.9191C16.8378 37.0509 17.0166 37.125 17.2031 37.125H35.4844C35.6709 37.125 35.8497 37.0509 35.9816 36.9191C36.1134 36.7872 36.1875 36.6084 36.1875 36.4219V23.0625H25.4062Z" fill="#1279E1"/>
<path d="M27.0469 21.1874H35.6197C35.6429 21.1875 35.6655 21.1806 35.6848 21.1678C35.7041 21.1549 35.7191 21.1367 35.728 21.1153C35.7369 21.0939 35.7393 21.0704 35.7348 21.0477C35.7303 21.025 35.7193 21.0041 35.7029 20.9876L27.0123 12.297C26.9959 12.2807 26.975 12.2696 26.9523 12.2651C26.9295 12.2607 26.906 12.263 26.8846 12.2719C26.8633 12.2808 26.845 12.2959 26.8322 12.3152C26.8193 12.3344 26.8125 12.3571 26.8125 12.3802V20.9531C26.8125 21.0152 26.8372 21.0748 26.8811 21.1188C26.9251 21.1628 26.9847 21.1874 27.0469 21.1874Z" fill="#1279E1"/>
</svg>
