<svg width="48" height="48" viewBox="0 0 48 48" fill="none" xmlns="http://www.w3.org/2000/svg">
<rect width="48" height="48" rx="6" fill="white"/>
<rect x="0.5" y="0.5" width="47" height="47" rx="5.5" stroke="#0059B3" stroke-opacity="0.16"/>
<path d="M24 10.875V17.4375C24 18.1834 24.2963 18.8988 24.8238 19.4262C25.3512 19.9537 26.0666 20.25 26.8125 20.25H33.375V34.3125C33.375 35.0584 33.0787 35.7738 32.5512 36.3012C32.0238 36.8287 31.3084 37.125 30.5625 37.125H17.4375C16.6916 37.125 15.9762 36.8287 15.4488 36.3012C14.9213 35.7738 14.625 35.0584 14.625 34.3125V13.6875C14.625 12.9416 14.9213 12.2262 15.4488 11.6988C15.9762 11.1713 16.6916 10.875 17.4375 10.875H24ZM25.875 11.3438V17.4375C25.875 17.6861 25.9738 17.9246 26.1496 18.1004C26.3254 18.2762 26.5639 18.375 26.8125 18.375H32.9062L25.875 11.3438Z" fill="#1279E1"/>
</svg>
