<svg width="24" height="24" viewBox="0 0 24 24" fill="none" xmlns="http://www.w3.org/2000/svg">
<path d="M5 12V4" stroke="#0059B3" stroke-width="2" stroke-linecap="round"/>
<path d="M19 20V18" stroke="#0059B3" stroke-width="2" stroke-linecap="round"/>
<path d="M5 20V16" stroke="#0059B3" stroke-width="2" stroke-linecap="round"/>
<path d="M19 12V4" stroke="#0059B3" stroke-width="2" stroke-linecap="round"/>
<path d="M12 7V4" stroke="#0059B3" stroke-width="2" stroke-linecap="round"/>
<path d="M12 20V12" stroke="#0059B3" stroke-width="2" stroke-linecap="round"/>
<path d="M5 16C6.10457 16 7 15.1046 7 14C7 12.8954 6.10457 12 5 12C3.89543 12 3 12.8954 3 14C3 15.1046 3.89543 16 5 16Z" stroke="#0059B3" stroke-width="2" stroke-linecap="round"/>
<path d="M12 11C13.1046 11 14 10.1046 14 9C14 7.89543 13.1046 7 12 7C10.8954 7 10 7.89543 10 9C10 10.1046 10.8954 11 12 11Z" stroke="#0059B3" stroke-width="2" stroke-linecap="round"/>
<path d="M19 17C20.1046 17 21 16.1046 21 15C21 13.8954 20.1046 13 19 13C17.8954 13 17 13.8954 17 15C17 16.1046 17.8954 17 19 17Z" stroke="#0059B3" stroke-width="2" stroke-linecap="round"/>
</svg>
