<svg width="32" height="32" viewBox="0 0 32 32" fill="none" xmlns="http://www.w3.org/2000/svg">
<path d="M15.9998 11C15.0109 11 14.0442 11.2932 13.2219 11.8427C12.3997 12.3921 11.7588 13.173 11.3804 14.0866C11.0019 15.0002 10.9029 16.0055 11.0958 16.9755C11.2888 17.9454 11.765 18.8363 12.4642 19.5355C13.1635 20.2348 14.0544 20.711 15.0243 20.9039C15.9942 21.0969 16.9996 20.9978 17.9132 20.6194C18.8268 20.241 19.6077 19.6001 20.1571 18.7779C20.7065 17.9556 20.9998 16.9889 20.9998 16C20.9958 14.6751 20.4678 13.4057 19.5309 12.4688C18.5941 11.532 17.3246 11.004 15.9998 11ZM26.7948 16C26.7922 16.4672 26.7579 16.9337 26.6923 17.3962L29.7354 19.7787C29.8679 19.8882 29.9572 20.0412 29.9873 20.2104C30.0175 20.3796 29.9864 20.5541 29.8998 20.7025L27.021 25.6725C26.9335 25.8196 26.7969 25.9312 26.6353 25.9875C26.4736 26.0439 26.2973 26.0415 26.1373 25.9806L22.5591 24.5431C21.8141 25.1169 20.9987 25.593 20.1329 25.96L19.5979 29.7588C19.5679 29.9289 19.4798 30.0834 19.3486 30.1958C19.2174 30.3082 19.0513 30.3715 18.8785 30.375H13.121C12.9514 30.3717 12.788 30.311 12.6573 30.2028C12.5266 30.0946 12.4365 29.9454 12.4016 29.7794L11.8666 25.9806C10.9984 25.6179 10.1825 25.141 9.44039 24.5625L5.86226 26C5.70232 26.0609 5.52603 26.0634 5.36439 26.0072C5.20276 25.9509 5.06612 25.8395 4.97851 25.6925L2.09976 20.7231C2.01311 20.5747 1.98207 20.4003 2.01218 20.231C2.04229 20.0618 2.1316 19.9088 2.26414 19.7994L5.30726 17.4169C5.24236 16.9473 5.20812 16.474 5.20476 16C5.20736 15.5328 5.24161 15.0663 5.30726 14.6038L2.26414 12.2212C2.1316 12.1118 2.04229 11.9588 2.01218 11.7896C1.98207 11.6204 2.01311 11.4459 2.09976 11.2975L4.97851 6.3275C5.06603 6.18037 5.20262 6.06882 5.36426 6.01246C5.52591 5.9561 5.70225 5.95855 5.86226 6.01937L9.44039 7.45687C10.1855 6.88313 11.0008 6.40698 11.8666 6.04L12.4016 2.24125C12.4316 2.07109 12.5197 1.91662 12.6509 1.80422C12.7821 1.69181 12.9483 1.62847 13.121 1.625H18.8785C19.0481 1.6283 19.2116 1.68899 19.3422 1.79717C19.4729 1.90535 19.563 2.05462 19.5979 2.22062L20.1329 6.01937C21.0022 6.38186 21.8192 6.85878 22.5623 7.4375L26.1373 6C26.2972 5.93912 26.4735 5.93658 26.6351 5.99282C26.7968 6.04906 26.9334 6.16048 27.021 6.3075L29.8998 11.2775C29.9864 11.4259 30.0175 11.6004 29.9873 11.7696C29.9572 11.9388 29.8679 12.0918 29.7354 12.2013L26.6923 14.5837C26.7571 15.0531 26.7914 15.5262 26.7948 16Z" fill="#52525B"/>
</svg>
