<svg width="18" height="18" viewBox="0 0 18 18" fill="none" xmlns="http://www.w3.org/2000/svg">
<path fill-rule="evenodd" clip-rule="evenodd" d="M10.4878 1.90621C10.5533 2.0332 10.5696 2.19583 10.6021 2.52108C10.6636 3.13672 10.6945 3.44456 10.8233 3.61345C10.9867 3.82769 11.2525 3.93778 11.5196 3.90186C11.7301 3.87354 11.9696 3.67764 12.4484 3.28585C12.7014 3.07886 12.8278 2.97537 12.964 2.93188C13.1368 2.87666 13.3239 2.88599 13.4904 2.95814C13.6215 3.01496 13.7371 3.13052 13.9682 3.36165L14.6383 4.03175C14.8694 4.26289 14.985 4.37846 15.0418 4.50956C15.114 4.67609 15.1233 4.86311 15.0681 5.03598C15.0246 5.17209 14.9211 5.29859 14.7141 5.55158C14.3223 6.03045 14.1264 6.26988 14.0981 6.48042C14.0622 6.74747 14.1723 7.01326 14.3865 7.1767C14.5554 7.30554 14.8632 7.33632 15.4789 7.39789C15.8042 7.43041 15.9668 7.44668 16.0938 7.51215C16.2551 7.5954 16.3807 7.73423 16.4474 7.90298C16.5 8.03588 16.5 8.1993 16.5 8.52615V9.47392C16.5 9.8007 16.5 9.96412 16.4475 10.0969C16.3808 10.2658 16.255 10.4047 16.0937 10.4878C15.9667 10.5533 15.8041 10.5696 15.4789 10.6021C14.8635 10.6636 14.5558 10.6944 14.3869 10.8232C14.1725 10.9867 14.0624 11.2526 14.0984 11.5197C14.1268 11.7302 14.3226 11.9695 14.7142 12.4482C14.9212 12.7011 15.0246 12.8275 15.0681 12.9636C15.1234 13.1365 15.114 13.3236 15.0418 13.4902C14.985 13.6213 14.8695 13.7368 14.6384 13.9679L13.9682 14.6381C13.7372 14.8691 13.6216 14.9847 13.4905 15.0416C13.3239 15.1137 13.1369 15.123 12.9641 15.0678C12.8279 15.0243 12.7014 14.9208 12.4484 14.7138C11.9696 14.322 11.7301 14.1261 11.5196 14.0978C11.2525 14.0619 10.9867 14.172 10.8233 14.3862C10.6945 14.5551 10.6637 14.863 10.6021 15.4787C10.5696 15.8041 10.5533 15.9668 10.4878 16.0939C10.4046 16.2551 10.2658 16.3807 10.0971 16.4474C9.9642 16.5 9.8007 16.5 9.4737 16.5H8.52615C8.1993 16.5 8.03588 16.5 7.90298 16.4474C7.73423 16.3807 7.5954 16.2551 7.51215 16.0938C7.44668 15.9668 7.43041 15.8042 7.39789 15.4789C7.33632 14.8632 7.30554 14.5554 7.17669 14.3865C7.01326 14.1723 6.74747 14.0622 6.48043 14.0981C6.26989 14.1264 6.03044 14.3223 5.55156 14.7142C5.29856 14.9212 5.17205 15.0247 5.03594 15.0681C4.86308 15.1234 4.67606 15.114 4.50954 15.0418C4.37843 14.9851 4.26285 14.8695 4.03171 14.6383L3.36163 13.9682C3.13049 13.7372 3.01491 13.6216 2.9581 13.4905C2.88595 13.3239 2.87663 13.1369 2.93185 12.9641C2.97533 12.8279 3.07883 12.7014 3.28583 12.4484C3.67763 11.9696 3.87353 11.7301 3.90185 11.5195C3.93778 11.2525 3.82768 10.9867 3.61344 10.8233C3.44455 10.6945 3.13672 10.6636 2.52107 10.6021C2.19582 10.5696 2.0332 10.5533 1.90621 10.4878C1.74492 10.4046 1.61926 10.2658 1.55254 10.097C1.5 9.96412 1.5 9.8007 1.5 9.47385V8.52623C1.5 8.1993 1.5 8.0358 1.55256 7.9029C1.61929 7.73422 1.74491 7.5954 1.90614 7.51223C2.03316 7.44668 2.19583 7.43042 2.52116 7.39788C3.13697 7.3363 3.44489 7.30551 3.61381 7.17661C3.82796 7.01319 3.93802 6.74748 3.90215 6.4805C3.87385 6.2699 3.67789 6.03039 3.28596 5.55137C3.07887 5.29826 2.97533 5.17171 2.93186 5.03554C2.87668 4.86273 2.886 4.67579 2.9581 4.50932C3.01491 4.37816 3.13052 4.26254 3.36175 4.03132L4.03174 3.36133C4.26288 3.13018 4.37846 3.0146 4.50958 2.9578C4.67609 2.88565 4.86311 2.87633 5.03597 2.93154C5.17209 2.97503 5.29861 3.07854 5.55165 3.28557C6.03046 3.67733 6.26986 3.8732 6.48033 3.90155C6.74746 3.93752 7.01335 3.82739 7.1768 3.61307C7.30558 3.4442 7.33636 3.13646 7.3979 2.52098C7.43041 2.19582 7.44668 2.03323 7.51215 1.90627C7.59533 1.74493 7.73423 1.61923 7.90305 1.55251C8.03588 1.5 8.1993 1.5 8.52608 1.5H9.47385C9.8007 1.5 9.96412 1.5 10.097 1.55254C10.2658 1.61926 10.4046 1.74492 10.4878 1.90621ZM9 12C10.6568 12 12 10.6568 12 9C12 7.34314 10.6568 6 9 6C7.34314 6 6 7.34314 6 9C6 10.6568 7.34314 12 9 12Z" fill="#0059B3"/>
</svg>
