<svg width="39" height="40" viewBox="0 0 39 40" fill="none" xmlns="http://www.w3.org/2000/svg">
<rect y="0.5" width="39" height="39" rx="19.5" fill="#F4F8FF"/>
<path d="M29 11.5H15.5C15.1025 11.5012 14.7217 11.6596 14.4407 11.9407C14.1596 12.2217 14.0012 12.6025 14 13V23.5C14.0012 23.8975 14.1596 24.2783 14.4407 24.5593C14.7217 24.8404 15.1025 24.9988 15.5 25H29C29.3975 24.9988 29.7783 24.8404 30.0593 24.5593C30.3404 24.2783 30.4988 23.8975 30.5 23.5V13C30.4988 12.6025 30.3404 12.2217 30.0593 11.9407C29.7783 11.6596 29.3975 11.5012 29 11.5ZM29 23.5H15.5V13H29V23.5Z" fill="#0059B3"/>
<path d="M21.5 28H11V20.5H12.5V19H11C10.6025 19.0012 10.2217 19.1596 9.94065 19.4407C9.6596 19.7217 9.50119 20.1025 9.5 20.5V28C9.50119 28.3975 9.6596 28.7783 9.94065 29.0593C10.2217 29.3404 10.6025 29.4988 11 29.5H21.5C21.8975 29.4988 22.2783 29.3404 22.5593 29.0593C22.8404 28.7783 22.9988 28.3975 23 28V26.5H21.5V28Z" fill="#0059B3"/>
</svg>
