<svg width="39" height="40" viewBox="0 0 39 40" fill="none" xmlns="http://www.w3.org/2000/svg">
<circle cx="19.5" cy="20" r="19.5" fill="#F4F8FF"/>
<path d="M29.3506 11.6689C29.3418 11.6601 27.5605 13.4209 24.0156 16.9599L21.5283 14.4726L26.8281 9.17282C24.0391 7.4941 20.4561 7.92477 18.1328 10.248C17.2447 11.1356 16.6057 12.2411 16.2797 13.4536C15.9536 14.6661 15.9522 15.943 16.2754 17.1562L16.3281 17.3525L8.02246 25.6552C7.84082 25.8369 7.84082 26.1357 8.02246 26.3173L12.165 30.4599C12.3467 30.6416 12.6455 30.6416 12.8271 30.4599L21.127 22.1601L21.3232 22.2129C23.7754 22.8662 26.4092 22.1865 28.2373 20.3584C30.5635 18.0351 30.9941 14.4521 29.3506 11.6689Z" fill="#0059B3"/>
</svg>
