<svg width="39" height="40" viewBox="0 0 39 40" fill="none" xmlns="http://www.w3.org/2000/svg">
<circle cx="19.5" cy="20" r="19.5" fill="#DCFFE9"/>
<path d="M29.3511 11.6689C29.3423 11.6601 27.561 13.4209 24.0161 16.9599L21.5288 14.4726L26.8286 9.17282C24.0396 7.4941 20.4565 7.92477 18.1333 10.248C17.2452 11.1356 16.6061 12.2411 16.2801 13.4536C15.9541 14.6661 15.9527 15.943 16.2759 17.1562L16.3286 17.3525L8.02295 25.6552C7.84131 25.8369 7.84131 26.1357 8.02295 26.3173L12.1655 30.4599C12.3472 30.6416 12.646 30.6416 12.8276 30.4599L21.1274 22.1601L21.3237 22.2129C23.7759 22.8662 26.4097 22.1865 28.2378 20.3584C30.564 18.0351 30.9946 14.4521 29.3511 11.6689Z" fill="#16A34A"/>
</svg>
