<svg width="17" height="16" viewBox="0 0 17 16" fill="none" xmlns="http://www.w3.org/2000/svg">
<path d="M2.1 4.8H14.9V15.2C14.9 15.4122 14.8157 15.6157 14.6657 15.7657C14.5157 15.9157 14.3122 16 14.1 16H2.9C2.68783 16 2.48434 15.9157 2.33431 15.7657C2.18429 15.6157 2.1 15.4122 2.1 15.2V4.8ZM3.7 6.4V14.4H13.3V6.4H3.7ZM6.1 8H7.7V12.8H6.1V8ZM9.3 8H10.9V12.8H9.3V8ZM4.5 2.4V0.8C4.5 0.587827 4.58429 0.384344 4.73431 0.234315C4.88434 0.0842854 5.08783 0 5.3 0H11.7C11.9122 0 12.1157 0.0842854 12.2657 0.234315C12.4157 0.384344 12.5 0.587827 12.5 0.8V2.4H16.5V4H0.5V2.4H4.5ZM6.1 1.6V2.4H10.9V1.6H6.1Z" fill="#C83D3D"/>
</svg>
