<svg width="48" height="48" viewBox="0 0 48 48" fill="none" xmlns="http://www.w3.org/2000/svg">
<rect width="48" height="48" rx="6" fill="white"/>
<rect x="0.5" y="0.5" width="47" height="47" rx="5.5" stroke="#0059B3" stroke-opacity="0.16"/>
<path d="M24.0008 19.3125C23.0737 19.3125 22.1674 19.5874 21.3966 20.1025C20.6257 20.6176 20.0249 21.3496 19.6701 22.2062C19.3153 23.0627 19.2225 24.0052 19.4034 24.9145C19.5843 25.8238 20.0307 26.659 20.6863 27.3146C21.3418 27.9701 22.177 28.4166 23.0863 28.5974C23.9956 28.7783 24.9381 28.6855 25.7946 28.3307C26.6512 27.9759 27.3833 27.3751 27.8983 26.6042C28.4134 25.8334 28.6883 24.9271 28.6883 24C28.6846 22.7579 28.1896 21.5678 27.3113 20.6895C26.433 19.8113 25.2429 19.3162 24.0008 19.3125ZM34.1211 24C34.1187 24.438 34.0866 24.8753 34.025 25.309L36.878 27.5426C37.0022 27.6452 37.0859 27.7886 37.1142 27.9473C37.1424 28.1059 37.1133 28.2694 37.0321 28.4086L34.3332 33.068C34.2512 33.2059 34.1231 33.3105 33.9716 33.3633C33.8201 33.4162 33.6547 33.4139 33.5047 33.3568L30.1502 32.0092C29.4517 32.5471 28.6873 32.9935 27.8756 33.3375L27.3741 36.8988C27.346 37.0584 27.2634 37.2032 27.1404 37.3085C27.0174 37.4139 26.8616 37.4733 26.6996 37.4766H21.302C21.143 37.4735 20.9897 37.4166 20.8673 37.3152C20.7448 37.2137 20.6603 37.0738 20.6276 36.9182L20.126 33.3568C19.3121 33.0168 18.5471 32.5697 17.8514 32.0273L14.4969 33.375C14.347 33.4321 14.1817 33.4345 14.0302 33.3817C13.8786 33.329 13.7505 33.2245 13.6684 33.0867L10.9696 28.4279C10.8883 28.2888 10.8592 28.1252 10.8875 27.9666C10.9157 27.808 10.9994 27.6645 11.1237 27.5619L13.9766 25.3283C13.9157 24.8881 13.8836 24.4444 13.8805 24C13.8829 23.562 13.915 23.1247 13.9766 22.691L11.1237 20.4574C10.9994 20.3548 10.9157 20.2114 10.8875 20.0527C10.8592 19.8941 10.8883 19.7306 10.9696 19.5914L13.6684 14.932C13.7504 14.7941 13.8785 14.6895 14.03 14.6367C14.1816 14.5838 14.3469 14.5861 14.4969 14.6432L17.8514 15.9908C18.5499 15.4529 19.3143 15.0065 20.126 14.6625L20.6276 11.1012C20.6556 10.9416 20.7382 10.7968 20.8613 10.6915C20.9843 10.5861 21.14 10.5267 21.302 10.5234H26.6996C26.8586 10.5265 27.0119 10.5834 27.1344 10.6848C27.2569 10.7863 27.3414 10.9262 27.3741 11.0818L27.8756 14.6432C28.6906 14.983 29.4565 15.4301 30.1532 15.9727L33.5047 14.625C33.6547 14.5679 33.8199 14.5655 33.9715 14.6183C34.123 14.671 34.2511 14.7755 34.3332 14.9133L37.0321 19.5727C37.1133 19.7118 37.1424 19.8753 37.1142 20.034C37.0859 20.1926 37.0022 20.3361 36.878 20.4387L34.025 22.6723C34.0859 23.1123 34.118 23.5558 34.1211 24Z" fill="#1279E1"/>
</svg>
