<svg width="48" height="48" viewBox="0 0 48 48" fill="none" xmlns="http://www.w3.org/2000/svg">
<rect width="48" height="48" rx="6" fill="white"/>
<rect x="0.5" y="0.5" width="47" height="47" rx="5.5" stroke="#0059B3" stroke-opacity="0.16"/>
<path d="M22.4451 16.7125L31.2826 25.5513L22.3164 34.5188C21.9013 34.9338 21.3535 35.1896 20.7689 35.2413L20.5489 35.25H14.0076C13.6966 35.25 13.3965 35.1352 13.1649 34.9276C12.9333 34.72 12.7865 34.4342 12.7526 34.125L12.7451 33.9875V27.4463C12.7453 26.8593 12.9519 26.2912 13.3289 25.8413L13.4789 25.6788L22.4451 16.7125ZM26.3701 12.7863C26.8125 12.3439 27.4047 12.0834 28.0298 12.0563C28.6549 12.0292 29.2674 12.2375 29.7464 12.64L29.9051 12.7863L35.2089 18.09C35.651 18.5324 35.9112 19.1243 35.9383 19.7491C35.9654 20.3739 35.7573 20.9861 35.3551 21.465L35.2089 21.625L33.0514 23.7825L24.2139 14.9438L26.3701 12.7863Z" fill="#1279E1"/>
</svg>
