<svg width="18" height="18" viewBox="0 0 18 18" fill="none" xmlns="http://www.w3.org/2000/svg">
<path d="M5.67229 4.85156H2.86877C2.37308 4.85156 1.89769 5.04848 1.54718 5.39898C1.19667 5.74949 0.999756 6.22488 0.999756 6.72058V15.1311C0.999756 15.6268 1.19667 16.1022 1.54718 16.4527C1.89769 16.8032 2.37308 17.0002 2.86877 17.0002H11.2793C11.775 17.0002 12.2504 16.8032 12.6009 16.4527C12.9514 16.1022 13.1484 15.6268 13.1484 15.1311V12.3276" stroke="#616F86" stroke-width="1.5" stroke-linecap="round" stroke-linejoin="round"/>
<path d="M5.67261 12.3275H8.47613L16.4194 4.38415C16.7912 4.01238 17.0001 3.50815 17.0001 2.98239C17.0001 2.45663 16.7912 1.9524 16.4194 1.58063C16.0477 1.20886 15.5434 1 15.0177 1C14.4919 1 13.9877 1.20886 13.6159 1.58063L5.67261 9.52394V12.3275Z" stroke="#616F86" stroke-width="1.5" stroke-linecap="round" stroke-linejoin="round"/>
<path d="M12.2129 2.98242L15.0164 5.78594" stroke="#616F86" stroke-width="1.5" stroke-linecap="round" stroke-linejoin="round"/>
</svg>
