<svg width="48" height="48" viewBox="0 0 48 48" fill="none" xmlns="http://www.w3.org/2000/svg">
<rect width="48" height="48" rx="6" fill="white"/>
<rect x="0.5" y="0.5" width="47" height="47" rx="5.5" stroke="#0059B3" stroke-opacity="0.16"/>
<g clip-path="url(#clip0_1648_1410)">
<path d="M35.0423 15.1589C33.154 14.6549 31.3091 14 29.5257 13.2005C27.771 12.4394 26.0772 11.5451 24.459 10.5255L24.0007 10.2422L23.5506 10.5339C21.9324 11.5534 20.2386 12.4477 18.484 13.2089C16.6976 14.0059 14.8499 14.658 12.959 15.1589L12.334 15.3172V22.2672C12.334 33.4255 23.609 37.6005 23.7173 37.6422L24.0007 37.7422L24.284 37.6422C24.4007 37.6422 35.6673 33.4339 35.6673 22.2672V15.3172L35.0423 15.1589Z" fill="#1279E1"/>
</g>
<path d="M30.5341 20.7166L30.6932 20.5575L30.5341 20.3984L29.4766 19.3409L29.3176 19.1819L29.1585 19.3408L21.3749 27.1171L18.4664 24.2157L18.3073 24.057L18.1484 24.2159L17.0909 25.2734L16.9318 25.4325L17.0909 25.5916L21.2159 29.7166L21.375 29.8757L21.5341 29.7166L30.5341 20.7166Z" fill="white" stroke="white" stroke-width="0.45"/>
<defs>
<clipPath id="clip0_1648_1410">
<rect width="30" height="30" fill="white" transform="translate(9 9)"/>
</clipPath>
</defs>
</svg>
