<svg width="48" height="48" viewBox="0 0 48 48" fill="none" xmlns="http://www.w3.org/2000/svg">
<rect width="48" height="48" rx="6" fill="white"/>
<rect x="0.5" y="0.5" width="47" height="47" rx="5.5" stroke="#0059B3" stroke-opacity="0.16"/>
<path d="M32.75 36.5H15.25C14.2554 36.5 13.3016 36.1049 12.5983 35.4017C11.8951 34.6984 11.5 33.7446 11.5 32.75V12.75C11.5 12.4185 11.6317 12.1005 11.8661 11.8661C12.1005 11.6317 12.4185 11.5 12.75 11.5H30.25C30.5815 11.5 30.8995 11.6317 31.1339 11.8661C31.3683 12.1005 31.5 12.4185 31.5 12.75V27.75H36.5V32.75C36.5 33.7446 36.1049 34.6984 35.4017 35.4017C34.6984 36.1049 33.7446 36.5 32.75 36.5ZM31.5 30.25V32.75C31.5 33.0815 31.6317 33.3995 31.8661 33.6339C32.1005 33.8683 32.4185 34 32.75 34C33.0815 34 33.3995 33.8683 33.6339 33.6339C33.8683 33.3995 34 33.0815 34 32.75V30.25H31.5ZM16.5 17.75V20.25H26.5V17.75H16.5ZM16.5 22.75V25.25H26.5V22.75H16.5ZM16.5 27.75V30.25H22.75V27.75H16.5Z" fill="#1279E1"/>
</svg>
