<svg width="48" height="48" viewBox="0 0 48 48" fill="none" xmlns="http://www.w3.org/2000/svg">
<rect width="48" height="48" rx="6" fill="#0073E6"/>
<path d="M32.4 27.45C32.8375 26.3875 33.075 25.25 33.075 24C33.075 23.1 32.9375 22.2375 32.7 21.4375C31.8875 21.625 31.0375 21.725 30.15 21.725C28.3325 21.7269 26.5411 21.2919 24.9269 20.4565C23.3127 19.6211 21.923 18.4099 20.875 16.925C19.7539 19.6377 17.6389 21.8197 14.9625 23.025C14.9125 23.3375 14.9125 23.675 14.9125 24C14.9125 25.1934 15.1476 26.3751 15.6042 27.4776C16.0609 28.5802 16.7303 29.582 17.5742 30.4258C19.2784 32.1301 21.5898 33.0875 24 33.0875C25.3125 33.0875 26.575 32.8 27.7125 32.2875C28.425 33.65 28.75 34.325 28.725 34.325C26.675 35.0125 25.0875 35.35 24 35.35C20.975 35.35 18.0875 34.1625 15.9625 32.025C14.67 30.7365 13.7092 29.1537 13.1625 27.4125H11.5V21.725H12.8625C13.2753 19.7156 14.2244 17.8555 15.609 16.342C16.9936 14.8285 18.7621 13.718 20.7269 13.1284C22.6917 12.5389 24.7794 12.4922 26.7686 12.9934C28.7577 13.4945 30.5741 14.5249 32.025 15.975C33.6003 17.5441 34.6748 19.5451 35.1125 21.725H36.5V27.4125H36.425L31.975 31.5L25.35 30.75V28.6625H31.3875L32.4 27.45ZM20.5875 23.7125C20.9625 23.7125 21.325 23.8625 21.5875 24.1375C21.8513 24.4035 21.9993 24.7629 21.9993 25.1375C21.9993 25.5121 21.8513 25.8715 21.5875 26.1375C21.325 26.4 20.9625 26.55 20.5875 26.55C19.8 26.55 19.1625 25.925 19.1625 25.1375C19.1625 24.35 19.8 23.7125 20.5875 23.7125ZM27.4 23.7125C28.1875 23.7125 28.8125 24.35 28.8125 25.1375C28.8125 25.925 28.1875 26.55 27.4 26.55C26.6125 26.55 25.975 25.925 25.975 25.1375C25.975 24.7596 26.1251 24.3971 26.3924 24.1299C26.6596 23.8626 27.0221 23.7125 27.4 23.7125Z" fill="white"/>
</svg>
