<svg width="48" height="48" viewBox="0 0 48 48" fill="none" xmlns="http://www.w3.org/2000/svg">
<rect width="48" height="48" rx="6" fill="white"/>
<rect x="0.5" y="0.5" width="47" height="47" rx="5.5" stroke="#0059B3" stroke-opacity="0.16"/>
<path d="M37.0271 34.4062L31.7537 21.6328C31.6563 21.3969 31.4911 21.1952 31.279 21.0533C31.0669 20.9114 30.8174 20.8357 30.5622 20.8357C30.307 20.8357 30.0575 20.9114 29.8454 21.0533C29.6333 21.1952 29.4681 21.3969 29.3707 21.6328L24.0973 34.4062C24.0317 34.5629 23.9977 34.731 23.9973 34.9008C23.9969 35.0706 24.03 35.2388 24.0948 35.3958C24.1596 35.5528 24.2547 35.6954 24.3748 35.8155C24.4949 35.9356 24.6375 36.0307 24.7944 36.0955C24.9514 36.1603 25.1196 36.1935 25.2895 36.1931C25.4593 36.1927 25.6273 36.1587 25.784 36.0932C25.9406 36.0276 26.0828 35.9317 26.2023 35.8111C26.3218 35.6904 26.4162 35.5473 26.4803 35.39L27.5543 32.7891H33.5701L34.6441 35.39C34.7415 35.626 34.9067 35.8278 35.1189 35.9698C35.3311 36.1118 35.5806 36.1875 35.8359 36.1875C36.0478 36.1874 36.2563 36.135 36.4431 36.0352C36.6299 35.9353 36.7891 35.7909 36.9069 35.6148C37.0246 35.4387 37.0971 35.2363 37.1179 35.0255C37.1388 34.8147 37.1074 34.602 37.0266 34.4062H37.0271ZM28.6189 30.2109L30.5625 25.5029L32.5061 30.2109H28.6189ZM24.6937 29.093C24.894 28.8163 24.9763 28.4715 24.9226 28.1343C24.8689 27.797 24.6835 27.4949 24.4072 27.2941C24.3955 27.2854 23.5283 26.642 22.2691 25.2592C24.5924 22.1139 25.9084 18.5355 26.4451 16.8516H28.3359C28.6778 16.8516 29.0057 16.7158 29.2474 16.474C29.4892 16.2323 29.625 15.9044 29.625 15.5625C29.625 15.2206 29.4892 14.8927 29.2474 14.651C29.0057 14.4092 28.6778 14.2734 28.3359 14.2734H21.5391V13.1016C21.5391 12.7597 21.4033 12.4318 21.1615 12.1901C20.9198 11.9483 20.5919 11.8125 20.25 11.8125C19.9081 11.8125 19.5802 11.9483 19.3385 12.1901C19.0967 12.4318 18.9609 12.7597 18.9609 13.1016V14.2734H12.1641C11.8222 14.2734 11.4943 14.4092 11.2526 14.651C11.0108 14.8927 10.875 15.2206 10.875 15.5625C10.875 15.9044 11.0108 16.2323 11.2526 16.474C11.4943 16.7158 11.8222 16.8516 12.1641 16.8516H23.7217C23.1639 18.4307 22.1367 20.9238 20.5699 23.2008C18.7295 20.7586 18.0457 19.1783 18.0404 19.1654C17.9057 18.8541 17.6536 18.6084 17.3389 18.4816C17.0242 18.3549 16.6722 18.3573 16.3593 18.4884C16.0464 18.6195 15.7977 18.8687 15.6673 19.1819C15.5369 19.4951 15.5353 19.8471 15.6627 20.1615C15.6967 20.2424 16.5152 22.1672 18.76 25.0793C18.8139 25.149 18.8672 25.217 18.9205 25.285C16.6213 27.8836 14.3654 29.4955 13.4215 30.0158C13.1213 30.1795 12.8985 30.4558 12.802 30.7838C12.7055 31.1118 12.7433 31.4647 12.907 31.7648C13.0707 32.065 13.347 32.2878 13.675 32.3843C14.003 32.4808 14.3559 32.443 14.6561 32.2793C14.7826 32.2102 17.5037 30.7037 20.6109 27.2643C21.9305 28.6752 22.8375 29.3408 22.892 29.3795C23.0291 29.4791 23.1845 29.5507 23.3493 29.5901C23.5141 29.6296 23.6851 29.6362 23.8524 29.6095C24.0197 29.5829 24.1802 29.5235 24.3246 29.4347C24.4689 29.346 24.5944 29.2297 24.6937 29.0924V29.093Z" fill="#1279E1"/>
</svg>
