<svg width="50" height="50" viewBox="0 0 50 50" fill="none" xmlns="http://www.w3.org/2000/svg">
<circle cx="25" cy="25" r="25" fill="#F0F5FF"/>
<path d="M33.625 24.625H17.375C17.0312 24.625 16.75 24.8922 16.75 25.2188V26.4062C16.75 26.7328 17.0312 27 17.375 27H33.625C33.9688 27 34.25 26.7328 34.25 26.4062V25.2188C34.25 24.8922 33.9688 24.625 33.625 24.625ZM36.125 12.75C35.0898 12.75 34.25 13.5479 34.25 14.5312C34.25 14.7947 34.3125 15.0396 34.4219 15.266L31.5938 16.8766C30.9922 17.218 30.2148 17.025 29.8672 16.4461L26.6836 11.1543C27.1016 10.8277 27.375 10.3379 27.375 9.78125C27.375 8.79785 26.5352 8 25.5 8C24.4648 8 23.625 8.79785 23.625 9.78125C23.625 10.3379 23.8984 10.8277 24.3164 11.1543L21.1328 16.4461C20.7852 17.025 20.0039 17.218 19.4062 16.8766L16.582 15.266C16.6875 15.0434 16.7539 14.7947 16.7539 14.5312C16.7539 13.5479 15.9141 12.75 14.8789 12.75C13.8437 12.75 13 13.5479 13 14.5312C13 15.5146 13.8398 16.3125 14.875 16.3125C14.9766 16.3125 15.0781 16.2977 15.1758 16.2828L18 23.4375H33L35.8242 16.2828C35.9219 16.2977 36.0234 16.3125 36.125 16.3125C37.1602 16.3125 38 15.5146 38 14.5312C38 13.5479 37.1602 12.75 36.125 12.75Z" fill="#0059B3"/>
<path d="M18.0547 37.1055H15.9336V35.5176H18.0547C18.3438 35.5176 18.5781 35.4688 18.7578 35.3711C18.9375 35.2734 19.0684 35.1387 19.1504 34.9668C19.2363 34.791 19.2793 34.5938 19.2793 34.375C19.2793 34.1406 19.2363 33.9238 19.1504 33.7246C19.0684 33.5254 18.9375 33.3652 18.7578 33.2441C18.5781 33.1191 18.3438 33.0566 18.0547 33.0566H16.707V40H14.6504V31.4688H18.0547C18.7383 31.4688 19.3262 31.5938 19.8184 31.8438C20.3145 32.0938 20.6953 32.4375 20.9609 32.875C21.2266 33.3086 21.3594 33.8047 21.3594 34.3633C21.3594 34.9141 21.2266 35.3945 20.9609 35.8047C20.6953 36.2148 20.3145 36.5352 19.8184 36.7656C19.3262 36.9922 18.7383 37.1055 18.0547 37.1055ZM22.4668 31.4688H25.8242C26.4805 31.4688 27.0508 31.5664 27.5352 31.7617C28.0195 31.957 28.3926 32.2461 28.6543 32.6289C28.9199 33.0117 29.0527 33.4844 29.0527 34.0469C29.0527 34.5352 28.9766 34.9434 28.8242 35.2715C28.6719 35.5996 28.459 35.8711 28.1855 36.0859C27.916 36.2969 27.6016 36.4707 27.2422 36.6074L26.5684 36.9883H23.75L23.7383 35.4004H25.8242C26.0859 35.4004 26.3027 35.3535 26.4746 35.2598C26.6465 35.166 26.7754 35.0332 26.8613 34.8613C26.9512 34.6855 26.9961 34.4766 26.9961 34.2344C26.9961 33.9883 26.9512 33.7773 26.8613 33.6016C26.7715 33.4258 26.6387 33.291 26.4629 33.1973C26.291 33.1035 26.0781 33.0566 25.8242 33.0566H24.5234V40H22.4668V31.4688ZM27.1367 40L25.25 36.2266L27.4297 36.2148L29.3398 39.9121V40H27.1367ZM37.5137 35.5645V35.9102C37.5137 36.5625 37.4219 37.1484 37.2383 37.668C37.0586 38.1836 36.8027 38.625 36.4707 38.9922C36.1387 39.3555 35.7461 39.6348 35.293 39.8301C34.8398 40.0215 34.3398 40.1172 33.793 40.1172C33.2422 40.1172 32.7383 40.0215 32.2812 39.8301C31.8281 39.6348 31.4336 39.3555 31.0977 38.9922C30.7656 38.625 30.5078 38.1836 30.3242 37.668C30.1445 37.1484 30.0547 36.5625 30.0547 35.9102V35.5645C30.0547 34.9121 30.1445 34.3262 30.3242 33.8066C30.5078 33.2871 30.7637 32.8457 31.0918 32.4824C31.4238 32.1152 31.8164 31.8359 32.2695 31.6445C32.7266 31.4492 33.2305 31.3516 33.7812 31.3516C34.3281 31.3516 34.8281 31.4492 35.2812 31.6445C35.7383 31.8359 36.1328 32.1152 36.4648 32.4824C36.7969 32.8457 37.0547 33.2871 37.2383 33.8066C37.4219 34.3262 37.5137 34.9121 37.5137 35.5645ZM35.4277 35.9102V35.5527C35.4277 35.1309 35.3906 34.7598 35.3164 34.4395C35.2461 34.1152 35.1406 33.8438 35 33.625C34.8594 33.4062 34.6855 33.2422 34.4785 33.1328C34.2754 33.0195 34.043 32.9629 33.7812 32.9629C33.5078 32.9629 33.2695 33.0195 33.0664 33.1328C32.8633 33.2422 32.6934 33.4062 32.5566 33.625C32.4199 33.8438 32.3164 34.1152 32.2461 34.4395C32.1797 34.7598 32.1465 35.1309 32.1465 35.5527V35.9102C32.1465 36.3281 32.1797 36.6992 32.2461 37.0234C32.3164 37.3438 32.4199 37.6152 32.5566 37.8379C32.6973 38.0605 32.8691 38.2285 33.0723 38.3418C33.2793 38.4551 33.5195 38.5117 33.793 38.5117C34.0547 38.5117 34.2871 38.4551 34.4902 38.3418C34.6934 38.2285 34.8633 38.0605 35 37.8379C35.1406 37.6152 35.2461 37.3438 35.3164 37.0234C35.3906 36.6992 35.4277 36.3281 35.4277 35.9102Z" fill="#0059B3"/>
</svg>
