<svg width="48" height="48" viewBox="0 0 48 48" fill="none" xmlns="http://www.w3.org/2000/svg">
<rect width="48" height="48" rx="6" fill="#0073E6"/>
<path d="M24.0003 19.3125C23.0732 19.3125 22.1669 19.5874 21.3961 20.1025C20.6252 20.6176 20.0244 21.3496 19.6696 22.2062C19.3149 23.0627 19.222 24.0052 19.4029 24.9145C19.5838 25.8238 20.0302 26.659 20.6858 27.3146C21.3413 27.9701 22.1766 28.4166 23.0858 28.5974C23.9951 28.7783 24.9376 28.6855 25.7942 28.3307C26.6507 27.9759 27.3828 27.3751 27.8978 26.6042C28.4129 25.8334 28.6878 24.9271 28.6878 24C28.6841 22.7579 28.1891 21.5678 27.3108 20.6895C26.4325 19.8113 25.2424 19.3162 24.0003 19.3125ZM34.1206 24C34.1182 24.438 34.0861 24.8753 34.0245 25.309L36.8775 27.5426C37.0017 27.6452 37.0855 27.7886 37.1137 27.9473C37.1419 28.1059 37.1128 28.2694 37.0316 28.4086L34.3328 33.068C34.2507 33.2059 34.1227 33.3105 33.9711 33.3633C33.8196 33.4162 33.6543 33.4139 33.5042 33.3568L30.1497 32.0092C29.4512 32.5471 28.6868 32.9935 27.8751 33.3375L27.3736 36.8988C27.3455 37.0584 27.2629 37.2032 27.1399 37.3085C27.0169 37.4139 26.8611 37.4733 26.6992 37.4766H21.3015C21.1425 37.4735 20.9893 37.4166 20.8668 37.3152C20.7443 37.2137 20.6598 37.0738 20.6271 36.9182L20.1255 33.3568C19.3116 33.0168 18.5466 32.5697 17.8509 32.0273L14.4964 33.375C14.3465 33.4321 14.1812 33.4345 14.0297 33.3817C13.8781 33.329 13.75 33.2245 13.6679 33.0867L10.9691 28.4279C10.8878 28.2888 10.8587 28.1252 10.887 27.9666C10.9152 27.808 10.9989 27.6645 11.1232 27.5619L13.9761 25.3283C13.9153 24.8881 13.8832 24.4444 13.88 24C13.8825 23.562 13.9146 23.1247 13.9761 22.691L11.1232 20.4574C10.9989 20.3548 10.9152 20.2114 10.887 20.0527C10.8587 19.8941 10.8878 19.7306 10.9691 19.5914L13.6679 14.932C13.7499 14.7941 13.878 14.6895 14.0295 14.6367C14.1811 14.5838 14.3464 14.5861 14.4964 14.6432L17.8509 15.9908C18.5494 15.4529 19.3138 15.0065 20.1255 14.6625L20.6271 11.1012C20.6552 10.9416 20.7378 10.7968 20.8608 10.6915C20.9838 10.5861 21.1396 10.5267 21.3015 10.5234H26.6992C26.8582 10.5265 27.0114 10.5834 27.1339 10.6848C27.2564 10.7863 27.3409 10.9262 27.3736 11.0818L27.8751 14.6432C28.6901 14.983 29.456 15.4301 30.1527 15.9727L33.5042 14.625C33.6542 14.5679 33.8195 14.5655 33.971 14.6183C34.1225 14.671 34.2506 14.7755 34.3328 14.9133L37.0316 19.5727C37.1128 19.7118 37.1419 19.8753 37.1137 20.034C37.0855 20.1926 37.0017 20.3361 36.8775 20.4387L34.0245 22.6723C34.0854 23.1123 34.1175 23.5558 34.1206 24Z" fill="white"/>
</svg>
