<svg width="50" height="50" viewBox="0 0 50 50" fill="none" xmlns="http://www.w3.org/2000/svg">
<circle cx="25" cy="25" r="25" fill="#F4F8FF"/>
<path d="M25 19.75V13H18.25C17.6533 13 17.081 13.2371 16.659 13.659C16.2371 14.081 16 14.6533 16 15.25V34.75C16 35.3467 16.2371 35.919 16.659 36.341C17.081 36.7629 17.6533 37 18.25 37H31.75C32.3467 37 32.919 36.7629 33.341 36.341C33.7629 35.919 34 35.3467 34 34.75V22H27.25C26.6533 22 26.081 21.7629 25.659 21.341C25.2371 20.919 25 20.3467 25 19.75ZM19.75 25H30.25C30.4489 25 30.6397 25.079 30.7803 25.2197C30.921 25.3603 31 25.5511 31 25.75C31 25.9489 30.921 26.1397 30.7803 26.2803C30.6397 26.421 30.4489 26.5 30.25 26.5H19.75C19.5511 26.5 19.3603 26.421 19.2197 26.2803C19.079 26.1397 19 25.9489 19 25.75C19 25.5511 19.079 25.3603 19.2197 25.2197C19.3603 25.079 19.5511 25 19.75 25ZM19.75 28H30.25C30.4489 28 30.6397 28.079 30.7803 28.2197C30.921 28.3603 31 28.5511 31 28.75C31 28.9489 30.921 29.1397 30.7803 29.2803C30.6397 29.421 30.4489 29.5 30.25 29.5H19.75C19.5511 29.5 19.3603 29.421 19.2197 29.2803C19.079 29.1397 19 28.9489 19 28.75C19 28.5511 19.079 28.3603 19.2197 28.2197C19.3603 28.079 19.5511 28 19.75 28ZM19.75 31H30.25C30.4489 31 30.6397 31.079 30.7803 31.2197C30.921 31.3603 31 31.5511 31 31.75C31 31.9489 30.921 32.1397 30.7803 32.2803C30.6397 32.421 30.4489 32.5 30.25 32.5H19.75C19.5511 32.5 19.3603 32.421 19.2197 32.2803C19.079 32.1397 19 31.9489 19 31.75C19 31.5511 19.079 31.3603 19.2197 31.2197C19.3603 31.079 19.5511 31 19.75 31ZM26.5 19.75V13.375L33.625 20.5H27.25C27.0511 20.5 26.8603 20.421 26.7197 20.2803C26.579 20.1397 26.5 19.9489 26.5 19.75Z" fill="#0059B3"/>
</svg>
